999
FreeCAD v0.19 24291 (Git)
  0
SECTION
  2
HEADER
  9
$ACADVER
  1
AC1014
  9
$ACADMAINTVER
 70
     9
  9
$DWGCODEPAGE
  3
ANSI_1252
  9
$TEXTSTYLE
  7
STANDARD
  9
$DIMSTYLE
  2
STANDARD
  9
$DIMTXSTY
  7
STANDARD
  9
$CMLSTYLE
  2
STANDARD
  9
$PEXTMAX
 10
50
 20
50
 30
50
  9
$PEXTMIN
 10
0
 20
0
 30
0
  9
$HANDSEED
  5
FFFF
  0
ENDSEC
  0
SECTION
  2
CLASSES
  0
CLASS
  1
ACDBDICTIONARYWDFLT
  2
AcDbDictionaryWithDefault
  3
ObjectDBX Classes
 90
        0
280
     0
281
     0
  0
CLASS
  1
XRECORD
  2
AcDbXrecord
  3
ObjectDBX Classes
 90
        0
280
     0
281
     0
  0
CLASS
  1
LWPOLYLINE
  2
AcDbPolyline
  3
ObjectDBX Classes
 90
        0
280
     0
281
     1
  0
ENDSEC
  0
SECTION
  2
TABLES
  0
TABLE
  2
VPORT
  5
20
330
0
100
AcDbSymbolTable
 70
     1
  0
VPORT
  5
21
330
20
100
AcDbSymbolTableRecord
100
AcDbViewportTableRecord
  2
*ACTIVE
 70
     0
  0
ENDTAB
  0
TABLE
  2
LTYPE
  5
22
330
0
100
AcDbSymbolTable
 70
     1
  0
LTYPE
  5
23
330
21
100
AcDbSymbolTableRecord
100
AcDbLinetypeTableRecord
  2
BYBLOCK
 70
     0
  3

 72
    65
 73
     0
 40
0.0
  0
LTYPE
  5
24
330
21
100
AcDbSymbolTableRecord
100
AcDbLinetypeTableRecord
  2
BYLAYER
 70
     0
  3

 72
    65
 73
     0
 40
0.0
  0
LTYPE
  5
25
330
21
100
AcDbSymbolTableRecord
100
AcDbLinetypeTableRecord
  2
CONTINUOUS
 70
     0
  3
Solid line
 72
    65
 73
     0
 40
0.0
  0
ENDTAB
  0
TABLE
  2
LAYER
  5
D0C
330
0
100
AcDbSymbolTable
 70
3
  0
LAYER
  5
D0D
330
D0C
100
AcDbSymbolTableRecord
100
AcDbLayerTableRecord
  2
0
 70
   0
 62
   7
  6
CONTINUOUS
  0
LAYER
  5
D0E
330
D0C
100
AcDbSymbolTableRecord
100
AcDbLayerTableRecord
  2
none
 70
    0
 62
    7
  6
CONTINUOUS
  0
LAYER
  5
D0F
330
D0C
100
AcDbSymbolTableRecord
100
AcDbLayerTableRecord
  2
Shape2DView
 70
    0
 62
    7
  6
CONTINUOUS
  0
ENDTAB
  0
TABLE
  2
STYLE
  5
70
330
0
100
AcDbSymbolTable
 70
     2
  0
STYLE
  5
71
330
70
100
AcDbSymbolTableRecord
100
AcDbTextStyleTableRecord
  2
STANDARD
 70
     0
 40
0.0
 41
1.0
 50
0.0
 71
     0
 42
2.5
  3
arial.ttf
  4

  0
STYLE
  5
72
330
70
100
AcDbSymbolTableRecord
100
AcDbTextStyleTableRecord
  2
ANNOTATIVE
 70
     0
 40
0.0
 41
1.0
 50
0.0
 71
     0
 42
2.5
  3
arial.ttf
  4

  0
ENDTAB
  0
TABLE
  2
VIEW
  5
73
330
0
100
AcDbSymbolTable
 70
     0
  0
ENDTAB
  0
TABLE
  2
UCS
  5
74
330
0
100
AcDbSymbolTable
 70
     0
  0
ENDTAB
  0
TABLE
  2
APPID
  5
75
330
0
100
AcDbSymbolTable
 70
     2
  0
APPID
  5
76
330
75
100
AcDbSymbolTableRecord
100
AcDbRegAppTableRecord
  2
ACAD
 70
     0
  0
APPID
  5
77
330
75
100
AcDbSymbolTableRecord
100
AcDbRegAppTableRecord
  2
ACADANNOTATIVE
 70
     0
  0
ENDTAB
  0
TABLE
  2
DIMSTYLE
  5
78
330
0
100
AcDbSymbolTable
 70
     2
  0
DIMSTYLE
105
79
330
78
100
AcDbSymbolTableRecord
100
AcDbDimStyleTableRecord
  2
STANDARD
 70
     0
  3

  4

  5

  6

  7

 40
0.0
 41
2.5
 42
0.625
 43
3.75
 44
1.25
 45
0.0
 46
0.0
 47
0.0
 48
0.0
140
2.5
141
2.5
142
0.0
143
0.03937007874016
144
1.0
145
0.0
146
1.0
147
0.625
 71
     0
 72
     0
 73
     0
 74
     0
 75
     0
 76
     0
 77
     1
 78
     8
170
     0
171
     3
172
     1
173
     0
174
     0
175
     0
176
     0
177
     0
178
     0
270
     2
271
     2
272
     2
273
     2
274
     3
340
71
275
     0
280
     0
281
     0
282
     0
283
     0
284
     8
285
     0
286
     0
287
     3
288
     0
  0
ENDTAB
  0
TABLE
  2
BLOCK_RECORD
  5
A01
330
0
100
AcDbSymbolTable
  70
5
  0
BLOCK_RECORD
  5
A02
330
A01
100
AcDbSymbolTableRecord
100
AcDbBlockTableRecord
  2
*MODEL_SPACE
  0
BLOCK_RECORD
  5
A03
330
A01
100
AcDbSymbolTableRecord
100
AcDbBlockTableRecord
  2
*PAPER_SPACE
  0
ENDTAB
  0
ENDSEC
  0
SECTION
  2
BLOCKS
  0
BLOCK
  5
A04
330
A02
100
AcDbEntity
  8
0
100
AcDbBlockBegin
  2
*MODEL_SPACE
 70
   0
 10
0
 20
0
 30
0
  3
*MODEL_SPACE
  1
 
  0
ENDBLK
  5
A05
330
A02
100
AcDbEntity
  8
0
100
AcDbBlockEnd
  0
BLOCK
  5
A06
330
A03
100
AcDbEntity
 67
1
  8
0
100
AcDbBlockBegin
  2
*PAPER_SPACE
 70
   0
 10
0
 20
0
 30
0
  3
*PAPER_SPACE
  1
 
  0
ENDBLK
  5
A07
330
A03
100
AcDbEntity
 67
    1
  8
0
100
AcDbBlockEnd
  0
ENDSEC
  0
SECTION
  2
ENTITIES
  0
LINE
  5
A08
330
A02
100
AcDbEntity
  8
Shape2DView
100
AcDbLine
 10
0
 20
8
 30
0
 11
64
 21
8
 31
0
  0
LINE
  5
A09
330
A02
100
AcDbEntity
  8
Shape2DView
100
AcDbLine
 10
64
 20
8
 30
0
 11
64
 21
-56
 31
0
  0
LINE
  5
A0A
330
A02
100
AcDbEntity
  8
Shape2DView
100
AcDbLine
 10
64
 20
-56
 30
0
 11
0
 21
-56
 31
0
  0
LINE
  5
A0B
330
A02
100
AcDbEntity
  8
Shape2DView
100
AcDbLine
 10
0
 20
-56
 30
0
 11
0
 21
8
 31
0
  0
ARC
  5
A0C
330
A02
100
AcDbEntity
  8
Shape2DView
100
AcDbCircle
 10
11.9998
 20
-12.009
 30
0
 40
3.4
100
AcDbArc
 50
-128.244
 51
-51.7563
  0
LINE
  5
A0D
330
A02
100
AcDbEntity
  8
Shape2DView
100
AcDbLine
 10
13.8973
 20
-13.9066
 30
0
 11
14.1044
 21
-14.6793
 31
0
  0
LINE
  5
A0E
330
A02
100
AcDbEntity
  8
Shape2DView
100
AcDbLine
 10
14.6701
 20
-14.1137
 30
0
 11
13.8973
 21
-13.9066
 31
0
  0
ARC
  5
A0F
330
A02
100
AcDbEntity
  8
Shape2DView
100
AcDbCircle
 10
11.9998
 20
-12.009
 30
0
 40
3.4
100
AcDbArc
 50
-38.2437
 51
38.2437
  0
LINE
  5
A10
330
A02
100
AcDbEntity
  8
Shape2DView
100
AcDbLine
 10
13.8973
 20
-10.1115
 30
0
 11
14.6701
 21
-9.90441
 31
0
  0
LINE
  5
A11
330
A02
100
AcDbEntity
  8
Shape2DView
100
AcDbLine
 10
14.1044
 20
-9.33873
 30
0
 11
13.8973
 21
-10.1115
 31
0
  0
ARC
  5
A12
330
A02
100
AcDbEntity
  8
Shape2DView
100
AcDbCircle
 10
11.9998
 20
-12.009
 30
0
 40
3.4
100
AcDbArc
 50
51.7563
 51
128.244
  0
LINE
  5
A13
330
A02
100
AcDbEntity
  8
Shape2DView
100
AcDbLine
 10
10.1022
 20
-10.1115
 30
0
 11
9.89515
 21
-9.33873
 31
0
  0
LINE
  5
A14
330
A02
100
AcDbEntity
  8
Shape2DView
100
AcDbLine
 10
9.32947
 20
-9.90441
 30
0
 11
10.1022
 21
-10.1115
 31
0
  0
ARC
  5
A15
330
A02
100
AcDbEntity
  8
Shape2DView
100
AcDbCircle
 10
11.9998
 20
-12.009
 30
0
 40
3.4
100
AcDbArc
 50
141.756
 51
-141.756
  0
LINE
  5
A16
330
A02
100
AcDbEntity
  8
Shape2DView
100
AcDbLine
 10
10.1022
 20
-13.9066
 30
0
 11
9.32947
 21
-14.1137
 31
0
  0
LINE
  5
A17
330
A02
100
AcDbEntity
  8
Shape2DView
100
AcDbLine
 10
9.89515
 20
-14.6793
 30
0
 11
10.1022
 21
-13.9066
 31
0
  0
ARC
  5
A18
330
A02
100
AcDbEntity
  8
Shape2DView
100
AcDbCircle
 10
4
 20
4
 30
0
 40
3.4
100
AcDbArc
 50
-128.244
 51
-51.7563
  0
LINE
  5
A19
330
A02
100
AcDbEntity
  8
Shape2DView
100
AcDbLine
 10
5.89757
 20
2.10243
 30
0
 11
6.10462
 21
1.32969
 31
0
  0
LINE
  5
A1A
330
A02
100
AcDbEntity
  8
Shape2DView
100
AcDbLine
 10
6.67031
 20
1.89538
 30
0
 11
5.89757
 21
2.10243
 31
0
  0
ARC
  5
A1B
330
A02
100
AcDbEntity
  8
Shape2DView
100
AcDbCircle
 10
4
 20
4
 30
0
 40
3.4
100
AcDbArc
 50
-38.2437
 51
38.2437
  0
LINE
  5
A1C
330
A02
100
AcDbEntity
  8
Shape2DView
100
AcDbLine
 10
5.89757
 20
5.89757
 30
0
 11
6.67031
 21
6.10462
 31
0
  0
LINE
  5
A1D
330
A02
100
AcDbEntity
  8
Shape2DView
100
AcDbLine
 10
6.10462
 20
6.67031
 30
0
 11
5.89757
 21
5.89757
 31
0
  0
ARC
  5
A1E
330
A02
100
AcDbEntity
  8
Shape2DView
100
AcDbCircle
 10
4
 20
4
 30
0
 40
3.4
100
AcDbArc
 50
51.7563
 51
128.244
  0
LINE
  5
A1F
330
A02
100
AcDbEntity
  8
Shape2DView
100
AcDbLine
 10
2.10243
 20
5.89757
 30
0
 11
1.89538
 21
6.67031
 31
0
  0
LINE
  5
A20
330
A02
100
AcDbEntity
  8
Shape2DView
100
AcDbLine
 10
1.32969
 20
6.10462
 30
0
 11
2.10243
 21
5.89757
 31
0
  0
ARC
  5
A21
330
A02
100
AcDbEntity
  8
Shape2DView
100
AcDbCircle
 10
4
 20
4
 30
0
 40
3.4
100
AcDbArc
 50
141.756
 51
-141.756
  0
LINE
  5
A22
330
A02
100
AcDbEntity
  8
Shape2DView
100
AcDbLine
 10
2.10243
 20
2.10243
 30
0
 11
1.32969
 21
1.89538
 31
0
  0
LINE
  5
A23
330
A02
100
AcDbEntity
  8
Shape2DView
100
AcDbLine
 10
1.89538
 20
1.32969
 30
0
 11
2.10243
 21
2.10243
 31
0
  0
ARC
  5
A24
330
A02
100
AcDbEntity
  8
Shape2DView
100
AcDbCircle
 10
12.0017
 20
-4.00547
 30
0
 40
3.4
100
AcDbArc
 50
-128.244
 51
-51.7563
  0
LINE
  5
A25
330
A02
100
AcDbEntity
  8
Shape2DView
100
AcDbLine
 10
13.8992
 20
-5.90304
 30
0
 11
14.1063
 21
-6.67578
 31
0
  0
LINE
  5
A26
330
A02
100
AcDbEntity
  8
Shape2DView
100
AcDbLine
 10
14.672
 20
-6.11009
 30
0
 11
13.8992
 21
-5.90304
 31
0
  0
ARC
  5
A27
330
A02
100
AcDbEntity
  8
Shape2DView
100
AcDbCircle
 10
12.0017
 20
-4.00547
 30
0
 40
3.4
100
AcDbArc
 50
-38.2437
 51
38.2437
  0
LINE
  5
A28
330
A02
100
AcDbEntity
  8
Shape2DView
100
AcDbLine
 10
13.8992
 20
-2.1079
 30
0
 11
14.672
 21
-1.90084
 31
0
  0
LINE
  5
A29
330
A02
100
AcDbEntity
  8
Shape2DView
100
AcDbLine
 10
14.1063
 20
-1.33516
 30
0
 11
13.8992
 21
-2.1079
 31
0
  0
ARC
  5
A2A
330
A02
100
AcDbEntity
  8
Shape2DView
100
AcDbCircle
 10
12.0017
 20
-4.00547
 30
0
 40
3.4
100
AcDbArc
 50
51.7563
 51
128.244
  0
LINE
  5
A2B
330
A02
100
AcDbEntity
  8
Shape2DView
100
AcDbLine
 10
10.1041
 20
-2.1079
 30
0
 11
9.89705
 21
-1.33516
 31
0
  0
LINE
  5
A2C
330
A02
100
AcDbEntity
  8
Shape2DView
100
AcDbLine
 10
9.33137
 20
-1.90084
 30
0
 11
10.1041
 21
-2.1079
 31
0
  0
ARC
  5
A2D
330
A02
100
AcDbEntity
  8
Shape2DView
100
AcDbCircle
 10
12.0017
 20
-4.00547
 30
0
 40
3.4
100
AcDbArc
 50
141.756
 51
-141.756
  0
LINE
  5
A2E
330
A02
100
AcDbEntity
  8
Shape2DView
100
AcDbLine
 10
10.1041
 20
-5.90304
 30
0
 11
9.33137
 21
-6.11009
 31
0
  0
LINE
  5
A2F
330
A02
100
AcDbEntity
  8
Shape2DView
100
AcDbLine
 10
9.89705
 20
-6.67578
 30
0
 11
10.1041
 21
-5.90304
 31
0
  0
ARC
  5
A30
330
A02
100
AcDbEntity
  8
Shape2DView
100
AcDbCircle
 10
12.0036
 20
3.9981
 30
0
 40
3.4
100
AcDbArc
 50
-128.244
 51
-51.7563
  0
LINE
  5
A31
330
A02
100
AcDbEntity
  8
Shape2DView
100
AcDbLine
 10
13.9011
 20
2.10053
 30
0
 11
14.1082
 21
1.32779
 31
0
  0
LINE
  5
A32
330
A02
100
AcDbEntity
  8
Shape2DView
100
AcDbLine
 10
14.6739
 20
1.89348
 30
0
 11
13.9011
 21
2.10053
 31
0
  0
ARC
  5
A33
330
A02
100
AcDbEntity
  8
Shape2DView
100
AcDbCircle
 10
12.0036
 20
3.9981
 30
0
 40
3.4
100
AcDbArc
 50
-38.2437
 51
38.2437
  0
LINE
  5
A34
330
A02
100
AcDbEntity
  8
Shape2DView
100
AcDbLine
 10
13.9011
 20
5.89567
 30
0
 11
14.6739
 21
6.10273
 31
0
  0
LINE
  5
A35
330
A02
100
AcDbEntity
  8
Shape2DView
100
AcDbLine
 10
14.1082
 20
6.66841
 30
0
 11
13.9011
 21
5.89567
 31
0
  0
ARC
  5
A36
330
A02
100
AcDbEntity
  8
Shape2DView
100
AcDbCircle
 10
12.0036
 20
3.9981
 30
0
 40
3.4
100
AcDbArc
 50
51.7563
 51
128.244
  0
LINE
  5
A37
330
A02
100
AcDbEntity
  8
Shape2DView
100
AcDbLine
 10
10.106
 20
5.89567
 30
0
 11
9.89895
 21
6.66841
 31
0
  0
LINE
  5
A38
330
A02
100
AcDbEntity
  8
Shape2DView
100
AcDbLine
 10
9.33326
 20
6.10273
 30
0
 11
10.106
 21
5.89567
 31
0
  0
ARC
  5
A39
330
A02
100
AcDbEntity
  8
Shape2DView
100
AcDbCircle
 10
12.0036
 20
3.9981
 30
0
 40
3.4
100
AcDbArc
 50
141.756
 51
-141.756
  0
LINE
  5
A3A
330
A02
100
AcDbEntity
  8
Shape2DView
100
AcDbLine
 10
10.106
 20
2.10053
 30
0
 11
9.33326
 21
1.89348
 31
0
  0
LINE
  5
A3B
330
A02
100
AcDbEntity
  8
Shape2DView
100
AcDbLine
 10
9.89895
 20
1.32779
 30
0
 11
10.106
 21
2.10053
 31
0
  0
ARC
  5
A3C
330
A02
100
AcDbEntity
  8
Shape2DView
100
AcDbCircle
 10
3.9981
 20
-4.00357
 30
0
 40
3.4
100
AcDbArc
 50
-128.244
 51
-51.7563
  0
LINE
  5
A3D
330
A02
100
AcDbEntity
  8
Shape2DView
100
AcDbLine
 10
5.89567
 20
-5.90114
 30
0
 11
6.10273
 21
-6.67388
 31
0
  0
LINE
  5
A3E
330
A02
100
AcDbEntity
  8
Shape2DView
100
AcDbLine
 10
6.66841
 20
-6.1082
 30
0
 11
5.89567
 21
-5.90114
 31
0
  0
ARC
  5
A3F
330
A02
100
AcDbEntity
  8
Shape2DView
100
AcDbCircle
 10
3.9981
 20
-4.00357
 30
0
 40
3.4
100
AcDbArc
 50
-38.2437
 51
38.2437
  0
LINE
  5
A40
330
A02
100
AcDbEntity
  8
Shape2DView
100
AcDbLine
 10
5.89567
 20
-2.106
 30
0
 11
6.66841
 21
-1.89895
 31
0
  0
LINE
  5
A41
330
A02
100
AcDbEntity
  8
Shape2DView
100
AcDbLine
 10
6.10273
 20
-1.33326
 30
0
 11
5.89567
 21
-2.106
 31
0
  0
ARC
  5
A42
330
A02
100
AcDbEntity
  8
Shape2DView
100
AcDbCircle
 10
3.9981
 20
-4.00357
 30
0
 40
3.4
100
AcDbArc
 50
51.7563
 51
128.244
  0
LINE
  5
A43
330
A02
100
AcDbEntity
  8
Shape2DView
100
AcDbLine
 10
2.10053
 20
-2.106
 30
0
 11
1.89348
 21
-1.33326
 31
0
  0
LINE
  5
A44
330
A02
100
AcDbEntity
  8
Shape2DView
100
AcDbLine
 10
1.32779
 20
-1.89895
 30
0
 11
2.10053
 21
-2.106
 31
0
  0
ARC
  5
A45
330
A02
100
AcDbEntity
  8
Shape2DView
100
AcDbCircle
 10
3.9981
 20
-4.00357
 30
0
 40
3.4
100
AcDbArc
 50
141.756
 51
-141.756
  0
LINE
  5
A46
330
A02
100
AcDbEntity
  8
Shape2DView
100
AcDbLine
 10
2.10053
 20
-5.90114
 30
0
 11
1.32779
 21
-6.1082
 31
0
  0
LINE
  5
A47
330
A02
100
AcDbEntity
  8
Shape2DView
100
AcDbLine
 10
1.89348
 20
-6.67388
 30
0
 11
2.10053
 21
-5.90114
 31
0
  0
ARC
  5
A48
330
A02
100
AcDbEntity
  8
Shape2DView
100
AcDbCircle
 10
3.99621
 20
-12.0071
 30
0
 40
3.4
100
AcDbArc
 50
-128.244
 51
-51.7563
  0
LINE
  5
A49
330
A02
100
AcDbEntity
  8
Shape2DView
100
AcDbLine
 10
5.89378
 20
-13.9047
 30
0
 11
6.10083
 21
-14.6775
 31
0
  0
LINE
  5
A4A
330
A02
100
AcDbEntity
  8
Shape2DView
100
AcDbLine
 10
6.66652
 20
-14.1118
 30
0
 11
5.89378
 21
-13.9047
 31
0
  0
ARC
  5
A4B
330
A02
100
AcDbEntity
  8
Shape2DView
100
AcDbCircle
 10
3.99621
 20
-12.0071
 30
0
 40
3.4
100
AcDbArc
 50
-38.2437
 51
38.2437
  0
LINE
  5
A4C
330
A02
100
AcDbEntity
  8
Shape2DView
100
AcDbLine
 10
5.89378
 20
-10.1096
 30
0
 11
6.66652
 21
-9.90252
 31
0
  0
LINE
  5
A4D
330
A02
100
AcDbEntity
  8
Shape2DView
100
AcDbLine
 10
6.10083
 20
-9.33683
 30
0
 11
5.89378
 21
-10.1096
 31
0
  0
ARC
  5
A4E
330
A02
100
AcDbEntity
  8
Shape2DView
100
AcDbCircle
 10
3.99621
 20
-12.0071
 30
0
 40
3.4
100
AcDbArc
 50
51.7563
 51
128.244
  0
LINE
  5
A4F
330
A02
100
AcDbEntity
  8
Shape2DView
100
AcDbLine
 10
2.09864
 20
-10.1096
 30
0
 11
1.89158
 21
-9.33683
 31
0
  0
LINE
  5
A50
330
A02
100
AcDbEntity
  8
Shape2DView
100
AcDbLine
 10
1.3259
 20
-9.90252
 30
0
 11
2.09864
 21
-10.1096
 31
0
  0
ARC
  5
A51
330
A02
100
AcDbEntity
  8
Shape2DView
100
AcDbCircle
 10
3.99621
 20
-12.0071
 30
0
 40
3.4
100
AcDbArc
 50
141.756
 51
-141.756
  0
LINE
  5
A52
330
A02
100
AcDbEntity
  8
Shape2DView
100
AcDbLine
 10
2.09864
 20
-13.9047
 30
0
 11
1.3259
 21
-14.1118
 31
0
  0
LINE
  5
A53
330
A02
100
AcDbEntity
  8
Shape2DView
100
AcDbLine
 10
1.89158
 20
-14.6775
 30
0
 11
2.09864
 21
-13.9047
 31
0
  0
ARC
  5
A54
330
A02
100
AcDbEntity
  8
Shape2DView
100
AcDbCircle
 10
60.0212
 20
-12.0204
 30
0
 40
3.4
100
AcDbArc
 50
-128.244
 51
-51.7563
  0
LINE
  5
A55
330
A02
100
AcDbEntity
  8
Shape2DView
100
AcDbLine
 10
61.9188
 20
-13.918
 30
0
 11
62.1258
 21
-14.6907
 31
0
  0
LINE
  5
A56
330
A02
100
AcDbEntity
  8
Shape2DView
100
AcDbLine
 10
62.6915
 20
-14.125
 30
0
 11
61.9188
 21
-13.918
 31
0
  0
ARC
  5
A57
330
A02
100
AcDbEntity
  8
Shape2DView
100
AcDbCircle
 10
60.0212
 20
-12.0204
 30
0
 40
3.4
100
AcDbArc
 50
-38.2437
 51
38.2437
  0
LINE
  5
A58
330
A02
100
AcDbEntity
  8
Shape2DView
100
AcDbLine
 10
61.9188
 20
-10.1228
 30
0
 11
62.6915
 21
-9.91579
 31
0
  0
LINE
  5
A59
330
A02
100
AcDbEntity
  8
Shape2DView
100
AcDbLine
 10
62.1258
 20
-9.3501
 30
0
 11
61.9188
 21
-10.1228
 31
0
  0
ARC
  5
A5A
330
A02
100
AcDbEntity
  8
Shape2DView
100
AcDbCircle
 10
60.0212
 20
-12.0204
 30
0
 40
3.4
100
AcDbArc
 50
51.7563
 51
128.244
  0
LINE
  5
A5B
330
A02
100
AcDbEntity
  8
Shape2DView
100
AcDbLine
 10
58.1236
 20
-10.1228
 30
0
 11
57.9166
 21
-9.3501
 31
0
  0
LINE
  5
A5C
330
A02
100
AcDbEntity
  8
Shape2DView
100
AcDbLine
 10
57.3509
 20
-9.91579
 30
0
 11
58.1236
 21
-10.1228
 31
0
  0
ARC
  5
A5D
330
A02
100
AcDbEntity
  8
Shape2DView
100
AcDbCircle
 10
60.0212
 20
-12.0204
 30
0
 40
3.4
100
AcDbArc
 50
141.756
 51
-141.756
  0
LINE
  5
A5E
330
A02
100
AcDbEntity
  8
Shape2DView
100
AcDbLine
 10
58.1236
 20
-13.918
 30
0
 11
57.3509
 21
-14.125
 31
0
  0
LINE
  5
A5F
330
A02
100
AcDbEntity
  8
Shape2DView
100
AcDbLine
 10
57.9166
 20
-14.6907
 30
0
 11
58.1236
 21
-13.918
 31
0
  0
ARC
  5
A60
330
A02
100
AcDbEntity
  8
Shape2DView
100
AcDbCircle
 10
52.0176
 20
-12.0185
 30
0
 40
3.4
100
AcDbArc
 50
-128.244
 51
-51.7563
  0
LINE
  5
A61
330
A02
100
AcDbEntity
  8
Shape2DView
100
AcDbLine
 10
53.9152
 20
-13.9161
 30
0
 11
54.1223
 21
-14.6888
 31
0
  0
LINE
  5
A62
330
A02
100
AcDbEntity
  8
Shape2DView
100
AcDbLine
 10
54.6879
 20
-14.1231
 30
0
 11
53.9152
 21
-13.9161
 31
0
  0
ARC
  5
A63
330
A02
100
AcDbEntity
  8
Shape2DView
100
AcDbCircle
 10
52.0176
 20
-12.0185
 30
0
 40
3.4
100
AcDbArc
 50
-38.2437
 51
38.2437
  0
LINE
  5
A64
330
A02
100
AcDbEntity
  8
Shape2DView
100
AcDbLine
 10
53.9152
 20
-10.1209
 30
0
 11
54.6879
 21
-9.91389
 31
0
  0
LINE
  5
A65
330
A02
100
AcDbEntity
  8
Shape2DView
100
AcDbLine
 10
54.1223
 20
-9.34821
 30
0
 11
53.9152
 21
-10.1209
 31
0
  0
ARC
  5
A66
330
A02
100
AcDbEntity
  8
Shape2DView
100
AcDbCircle
 10
52.0176
 20
-12.0185
 30
0
 40
3.4
100
AcDbArc
 50
51.7563
 51
128.244
  0
LINE
  5
A67
330
A02
100
AcDbEntity
  8
Shape2DView
100
AcDbLine
 10
50.1201
 20
-10.1209
 30
0
 11
49.913
 21
-9.34821
 31
0
  0
LINE
  5
A68
330
A02
100
AcDbEntity
  8
Shape2DView
100
AcDbLine
 10
49.3473
 20
-9.91389
 30
0
 11
50.1201
 21
-10.1209
 31
0
  0
ARC
  5
A69
330
A02
100
AcDbEntity
  8
Shape2DView
100
AcDbCircle
 10
52.0176
 20
-12.0185
 30
0
 40
3.4
100
AcDbArc
 50
141.756
 51
-141.756
  0
LINE
  5
A6A
330
A02
100
AcDbEntity
  8
Shape2DView
100
AcDbLine
 10
50.1201
 20
-13.9161
 30
0
 11
49.3473
 21
-14.1231
 31
0
  0
LINE
  5
A6B
330
A02
100
AcDbEntity
  8
Shape2DView
100
AcDbLine
 10
49.913
 20
-14.6888
 30
0
 11
50.1201
 21
-13.9161
 31
0
  0
ARC
  5
A6C
330
A02
100
AcDbEntity
  8
Shape2DView
100
AcDbCircle
 10
44.0141
 20
-12.0166
 30
0
 40
3.4
100
AcDbArc
 50
-128.244
 51
-51.7563
  0
LINE
  5
A6D
330
A02
100
AcDbEntity
  8
Shape2DView
100
AcDbLine
 10
45.9116
 20
-13.9142
 30
0
 11
46.1187
 21
-14.6869
 31
0
  0
LINE
  5
A6E
330
A02
100
AcDbEntity
  8
Shape2DView
100
AcDbLine
 10
46.6844
 20
-14.1212
 30
0
 11
45.9116
 21
-13.9142
 31
0
  0
ARC
  5
A6F
330
A02
100
AcDbEntity
  8
Shape2DView
100
AcDbCircle
 10
44.0141
 20
-12.0166
 30
0
 40
3.4
100
AcDbArc
 50
-38.2437
 51
38.2437
  0
LINE
  5
A70
330
A02
100
AcDbEntity
  8
Shape2DView
100
AcDbLine
 10
45.9116
 20
-10.1191
 30
0
 11
46.6844
 21
-9.912
 31
0
  0
LINE
  5
A71
330
A02
100
AcDbEntity
  8
Shape2DView
100
AcDbLine
 10
46.1187
 20
-9.34631
 30
0
 11
45.9116
 21
-10.1191
 31
0
  0
ARC
  5
A72
330
A02
100
AcDbEntity
  8
Shape2DView
100
AcDbCircle
 10
44.0141
 20
-12.0166
 30
0
 40
3.4
100
AcDbArc
 50
51.7563
 51
128.244
  0
LINE
  5
A73
330
A02
100
AcDbEntity
  8
Shape2DView
100
AcDbLine
 10
42.1165
 20
-10.1191
 30
0
 11
41.9094
 21
-9.34631
 31
0
  0
LINE
  5
A74
330
A02
100
AcDbEntity
  8
Shape2DView
100
AcDbLine
 10
41.3438
 20
-9.912
 30
0
 11
42.1165
 21
-10.1191
 31
0
  0
ARC
  5
A75
330
A02
100
AcDbEntity
  8
Shape2DView
100
AcDbCircle
 10
44.0141
 20
-12.0166
 30
0
 40
3.4
100
AcDbArc
 50
141.756
 51
-141.756
  0
LINE
  5
A76
330
A02
100
AcDbEntity
  8
Shape2DView
100
AcDbLine
 10
42.1165
 20
-13.9142
 30
0
 11
41.3438
 21
-14.1212
 31
0
  0
LINE
  5
A77
330
A02
100
AcDbEntity
  8
Shape2DView
100
AcDbLine
 10
41.9094
 20
-14.6869
 30
0
 11
42.1165
 21
-13.9142
 31
0
  0
ARC
  5
A78
330
A02
100
AcDbEntity
  8
Shape2DView
100
AcDbCircle
 10
36.0105
 20
-12.0147
 30
0
 40
3.4
100
AcDbArc
 50
-128.244
 51
-51.7563
  0
LINE
  5
A79
330
A02
100
AcDbEntity
  8
Shape2DView
100
AcDbLine
 10
37.9081
 20
-13.9123
 30
0
 11
38.1151
 21
-14.685
 31
0
  0
LINE
  5
A7A
330
A02
100
AcDbEntity
  8
Shape2DView
100
AcDbLine
 10
38.6808
 20
-14.1194
 30
0
 11
37.9081
 21
-13.9123
 31
0
  0
ARC
  5
A7B
330
A02
100
AcDbEntity
  8
Shape2DView
100
AcDbCircle
 10
36.0105
 20
-12.0147
 30
0
 40
3.4
100
AcDbArc
 50
-38.2437
 51
38.2437
  0
LINE
  5
A7C
330
A02
100
AcDbEntity
  8
Shape2DView
100
AcDbLine
 10
37.9081
 20
-10.1172
 30
0
 11
38.6808
 21
-9.9101
 31
0
  0
LINE
  5
A7D
330
A02
100
AcDbEntity
  8
Shape2DView
100
AcDbLine
 10
38.1151
 20
-9.34442
 30
0
 11
37.9081
 21
-10.1172
 31
0
  0
ARC
  5
A7E
330
A02
100
AcDbEntity
  8
Shape2DView
100
AcDbCircle
 10
36.0105
 20
-12.0147
 30
0
 40
3.4
100
AcDbArc
 50
51.7563
 51
128.244
  0
LINE
  5
A7F
330
A02
100
AcDbEntity
  8
Shape2DView
100
AcDbLine
 10
34.1129
 20
-10.1172
 30
0
 11
33.9059
 21
-9.34442
 31
0
  0
LINE
  5
A80
330
A02
100
AcDbEntity
  8
Shape2DView
100
AcDbLine
 10
33.3402
 20
-9.9101
 30
0
 11
34.1129
 21
-10.1172
 31
0
  0
ARC
  5
A81
330
A02
100
AcDbEntity
  8
Shape2DView
100
AcDbCircle
 10
36.0105
 20
-12.0147
 30
0
 40
3.4
100
AcDbArc
 50
141.756
 51
-141.756
  0
LINE
  5
A82
330
A02
100
AcDbEntity
  8
Shape2DView
100
AcDbLine
 10
34.1129
 20
-13.9123
 30
0
 11
33.3402
 21
-14.1194
 31
0
  0
LINE
  5
A83
330
A02
100
AcDbEntity
  8
Shape2DView
100
AcDbLine
 10
33.9059
 20
-14.685
 30
0
 11
34.1129
 21
-13.9123
 31
0
  0
ARC
  5
A84
330
A02
100
AcDbEntity
  8
Shape2DView
100
AcDbCircle
 10
11.996
 20
-28.0162
 30
0
 40
3.4
100
AcDbArc
 50
-128.244
 51
-51.7563
  0
LINE
  5
A85
330
A02
100
AcDbEntity
  8
Shape2DView
100
AcDbLine
 10
13.8936
 20
-29.9137
 30
0
 11
14.1006
 21
-30.6865
 31
0
  0
LINE
  5
A86
330
A02
100
AcDbEntity
  8
Shape2DView
100
AcDbLine
 10
14.6663
 20
-30.1208
 30
0
 11
13.8936
 21
-29.9137
 31
0
  0
ARC
  5
A87
330
A02
100
AcDbEntity
  8
Shape2DView
100
AcDbCircle
 10
11.996
 20
-28.0162
 30
0
 40
3.4
100
AcDbArc
 50
-38.2437
 51
38.2437
  0
LINE
  5
A88
330
A02
100
AcDbEntity
  8
Shape2DView
100
AcDbLine
 10
13.8936
 20
-26.1186
 30
0
 11
14.6663
 21
-25.9116
 31
0
  0
LINE
  5
A89
330
A02
100
AcDbEntity
  8
Shape2DView
100
AcDbLine
 10
14.1006
 20
-25.3459
 30
0
 11
13.8936
 21
-26.1186
 31
0
  0
ARC
  5
A8A
330
A02
100
AcDbEntity
  8
Shape2DView
100
AcDbCircle
 10
11.996
 20
-28.0162
 30
0
 40
3.4
100
AcDbArc
 50
51.7563
 51
128.244
  0
LINE
  5
A8B
330
A02
100
AcDbEntity
  8
Shape2DView
100
AcDbLine
 10
10.0984
 20
-26.1186
 30
0
 11
9.89136
 21
-25.3459
 31
0
  0
LINE
  5
A8C
330
A02
100
AcDbEntity
  8
Shape2DView
100
AcDbLine
 10
9.32568
 20
-25.9116
 30
0
 11
10.0984
 21
-26.1186
 31
0
  0
ARC
  5
A8D
330
A02
100
AcDbEntity
  8
Shape2DView
100
AcDbCircle
 10
11.996
 20
-28.0162
 30
0
 40
3.4
100
AcDbArc
 50
141.756
 51
-141.756
  0
LINE
  5
A8E
330
A02
100
AcDbEntity
  8
Shape2DView
100
AcDbLine
 10
10.0984
 20
-29.9137
 30
0
 11
9.32568
 21
-30.1208
 31
0
  0
LINE
  5
A8F
330
A02
100
AcDbEntity
  8
Shape2DView
100
AcDbLine
 10
9.89136
 20
-30.6865
 30
0
 11
10.0984
 21
-29.9137
 31
0
  0
ARC
  5
A90
330
A02
100
AcDbEntity
  8
Shape2DView
100
AcDbCircle
 10
3.99242
 20
-28.0143
 30
0
 40
3.4
100
AcDbArc
 50
-128.244
 51
-51.7563
  0
LINE
  5
A91
330
A02
100
AcDbEntity
  8
Shape2DView
100
AcDbLine
 10
5.88999
 20
-29.9119
 30
0
 11
6.09704
 21
-30.6846
 31
0
  0
LINE
  5
A92
330
A02
100
AcDbEntity
  8
Shape2DView
100
AcDbLine
 10
6.66273
 20
-30.1189
 30
0
 11
5.88999
 21
-29.9119
 31
0
  0
ARC
  5
A93
330
A02
100
AcDbEntity
  8
Shape2DView
100
AcDbCircle
 10
3.99242
 20
-28.0143
 30
0
 40
3.4
100
AcDbArc
 50
-38.2437
 51
38.2437
  0
LINE
  5
A94
330
A02
100
AcDbEntity
  8
Shape2DView
100
AcDbLine
 10
5.88999
 20
-26.1167
 30
0
 11
6.66273
 21
-25.9097
 31
0
  0
LINE
  5
A95
330
A02
100
AcDbEntity
  8
Shape2DView
100
AcDbLine
 10
6.09704
 20
-25.344
 30
0
 11
5.88999
 21
-26.1167
 31
0
  0
ARC
  5
A96
330
A02
100
AcDbEntity
  8
Shape2DView
100
AcDbCircle
 10
3.99242
 20
-28.0143
 30
0
 40
3.4
100
AcDbArc
 50
51.7563
 51
128.244
  0
LINE
  5
A97
330
A02
100
AcDbEntity
  8
Shape2DView
100
AcDbLine
 10
2.09485
 20
-26.1167
 30
0
 11
1.88779
 21
-25.344
 31
0
  0
LINE
  5
A98
330
A02
100
AcDbEntity
  8
Shape2DView
100
AcDbLine
 10
1.32211
 20
-25.9097
 30
0
 11
2.09485
 21
-26.1167
 31
0
  0
ARC
  5
A99
330
A02
100
AcDbEntity
  8
Shape2DView
100
AcDbCircle
 10
3.99242
 20
-28.0143
 30
0
 40
3.4
100
AcDbArc
 50
141.756
 51
-141.756
  0
LINE
  5
A9A
330
A02
100
AcDbEntity
  8
Shape2DView
100
AcDbLine
 10
2.09485
 20
-29.9119
 30
0
 11
1.32211
 21
-30.1189
 31
0
  0
LINE
  5
A9B
330
A02
100
AcDbEntity
  8
Shape2DView
100
AcDbLine
 10
1.88779
 20
-30.6846
 30
0
 11
2.09485
 21
-29.9119
 31
0
  0
ARC
  5
A9C
330
A02
100
AcDbEntity
  8
Shape2DView
100
AcDbCircle
 10
28.0069
 20
-12.0128
 30
0
 40
3.4
100
AcDbArc
 50
-128.244
 51
-51.7563
  0
LINE
  5
A9D
330
A02
100
AcDbEntity
  8
Shape2DView
100
AcDbLine
 10
29.9045
 20
-13.9104
 30
0
 11
30.1115
 21
-14.6831
 31
0
  0
LINE
  5
A9E
330
A02
100
AcDbEntity
  8
Shape2DView
100
AcDbLine
 10
30.6772
 20
-14.1175
 30
0
 11
29.9045
 21
-13.9104
 31
0
  0
ARC
  5
A9F
330
A02
100
AcDbEntity
  8
Shape2DView
100
AcDbCircle
 10
28.0069
 20
-12.0128
 30
0
 40
3.4
100
AcDbArc
 50
-38.2437
 51
38.2437
  0
LINE
  5
AA0
330
A02
100
AcDbEntity
  8
Shape2DView
100
AcDbLine
 10
29.9045
 20
-10.1153
 30
0
 11
30.6772
 21
-9.90821
 31
0
  0
LINE
  5
AA1
330
A02
100
AcDbEntity
  8
Shape2DView
100
AcDbLine
 10
30.1115
 20
-9.34252
 30
0
 11
29.9045
 21
-10.1153
 31
0
  0
ARC
  5
AA2
330
A02
100
AcDbEntity
  8
Shape2DView
100
AcDbCircle
 10
28.0069
 20
-12.0128
 30
0
 40
3.4
100
AcDbArc
 50
51.7563
 51
128.244
  0
LINE
  5
AA3
330
A02
100
AcDbEntity
  8
Shape2DView
100
AcDbLine
 10
26.1094
 20
-10.1153
 30
0
 11
25.9023
 21
-9.34252
 31
0
  0
LINE
  5
AA4
330
A02
100
AcDbEntity
  8
Shape2DView
100
AcDbLine
 10
25.3366
 20
-9.90821
 30
0
 11
26.1094
 21
-10.1153
 31
0
  0
ARC
  5
AA5
330
A02
100
AcDbEntity
  8
Shape2DView
100
AcDbCircle
 10
28.0069
 20
-12.0128
 30
0
 40
3.4
100
AcDbArc
 50
141.756
 51
-141.756
  0
LINE
  5
AA6
330
A02
100
AcDbEntity
  8
Shape2DView
100
AcDbLine
 10
26.1094
 20
-13.9104
 30
0
 11
25.3366
 21
-14.1175
 31
0
  0
LINE
  5
AA7
330
A02
100
AcDbEntity
  8
Shape2DView
100
AcDbLine
 10
25.9023
 20
-14.6831
 30
0
 11
26.1094
 21
-13.9104
 31
0
  0
ARC
  5
AA8
330
A02
100
AcDbEntity
  8
Shape2DView
100
AcDbCircle
 10
20.0034
 20
-12.0109
 30
0
 40
3.4
100
AcDbArc
 50
-128.244
 51
-51.7563
  0
LINE
  5
AA9
330
A02
100
AcDbEntity
  8
Shape2DView
100
AcDbLine
 10
21.9009
 20
-13.9085
 30
0
 11
22.108
 21
-14.6812
 31
0
  0
LINE
  5
AAA
330
A02
100
AcDbEntity
  8
Shape2DView
100
AcDbLine
 10
22.6737
 20
-14.1156
 30
0
 11
21.9009
 21
-13.9085
 31
0
  0
ARC
  5
AAB
330
A02
100
AcDbEntity
  8
Shape2DView
100
AcDbCircle
 10
20.0034
 20
-12.0109
 30
0
 40
3.4
100
AcDbArc
 50
-38.2437
 51
38.2437
  0
LINE
  5
AAC
330
A02
100
AcDbEntity
  8
Shape2DView
100
AcDbLine
 10
21.9009
 20
-10.1134
 30
0
 11
22.6737
 21
-9.90631
 31
0
  0
LINE
  5
AAD
330
A02
100
AcDbEntity
  8
Shape2DView
100
AcDbLine
 10
22.108
 20
-9.34062
 30
0
 11
21.9009
 21
-10.1134
 31
0
  0
ARC
  5
AAE
330
A02
100
AcDbEntity
  8
Shape2DView
100
AcDbCircle
 10
20.0034
 20
-12.0109
 30
0
 40
3.4
100
AcDbArc
 50
51.7563
 51
128.244
  0
LINE
  5
AAF
330
A02
100
AcDbEntity
  8
Shape2DView
100
AcDbLine
 10
18.1058
 20
-10.1134
 30
0
 11
17.8987
 21
-9.34062
 31
0
  0
LINE
  5
AB0
330
A02
100
AcDbEntity
  8
Shape2DView
100
AcDbLine
 10
17.333
 20
-9.90631
 30
0
 11
18.1058
 21
-10.1134
 31
0
  0
ARC
  5
AB1
330
A02
100
AcDbEntity
  8
Shape2DView
100
AcDbCircle
 10
20.0034
 20
-12.0109
 30
0
 40
3.4
100
AcDbArc
 50
141.756
 51
-141.756
  0
LINE
  5
AB2
330
A02
100
AcDbEntity
  8
Shape2DView
100
AcDbLine
 10
18.1058
 20
-13.9085
 30
0
 11
17.333
 21
-14.1156
 31
0
  0
LINE
  5
AB3
330
A02
100
AcDbEntity
  8
Shape2DView
100
AcDbLine
 10
17.8987
 20
-14.6812
 30
0
 11
18.1058
 21
-13.9085
 31
0
  0
ARC
  5
AB4
330
A02
100
AcDbEntity
  8
Shape2DView
100
AcDbCircle
 10
3.99052
 20
-36.0179
 30
0
 40
3.4
100
AcDbArc
 50
-128.244
 51
-51.7563
  0
LINE
  5
AB5
330
A02
100
AcDbEntity
  8
Shape2DView
100
AcDbLine
 10
5.88809
 20
-37.9154
 30
0
 11
6.09514
 21
-38.6882
 31
0
  0
LINE
  5
AB6
330
A02
100
AcDbEntity
  8
Shape2DView
100
AcDbLine
 10
6.66083
 20
-38.1225
 30
0
 11
5.88809
 21
-37.9154
 31
0
  0
ARC
  5
AB7
330
A02
100
AcDbEntity
  8
Shape2DView
100
AcDbCircle
 10
3.99052
 20
-36.0179
 30
0
 40
3.4
100
AcDbArc
 50
-38.2437
 51
38.2437
  0
LINE
  5
AB8
330
A02
100
AcDbEntity
  8
Shape2DView
100
AcDbLine
 10
5.88809
 20
-34.1203
 30
0
 11
6.66083
 21
-33.9132
 31
0
  0
LINE
  5
AB9
330
A02
100
AcDbEntity
  8
Shape2DView
100
AcDbLine
 10
6.09514
 20
-33.3475
 30
0
 11
5.88809
 21
-34.1203
 31
0
  0
ARC
  5
ABA
330
A02
100
AcDbEntity
  8
Shape2DView
100
AcDbCircle
 10
3.99052
 20
-36.0179
 30
0
 40
3.4
100
AcDbArc
 50
51.7563
 51
128.244
  0
LINE
  5
ABB
330
A02
100
AcDbEntity
  8
Shape2DView
100
AcDbLine
 10
2.09295
 20
-34.1203
 30
0
 11
1.8859
 21
-33.3475
 31
0
  0
LINE
  5
ABC
330
A02
100
AcDbEntity
  8
Shape2DView
100
AcDbLine
 10
1.32021
 20
-33.9132
 30
0
 11
2.09295
 21
-34.1203
 31
0
  0
ARC
  5
ABD
330
A02
100
AcDbEntity
  8
Shape2DView
100
AcDbCircle
 10
3.99052
 20
-36.0179
 30
0
 40
3.4
100
AcDbArc
 50
141.756
 51
-141.756
  0
LINE
  5
ABE
330
A02
100
AcDbEntity
  8
Shape2DView
100
AcDbLine
 10
2.09295
 20
-37.9154
 30
0
 11
1.32021
 21
-38.1225
 31
0
  0
LINE
  5
ABF
330
A02
100
AcDbEntity
  8
Shape2DView
100
AcDbLine
 10
1.8859
 20
-38.6882
 30
0
 11
2.09295
 21
-37.9154
 31
0
  0
ARC
  5
AC0
330
A02
100
AcDbEntity
  8
Shape2DView
100
AcDbCircle
 10
11.9941
 20
-36.0198
 30
0
 40
3.4
100
AcDbArc
 50
-128.244
 51
-51.7563
  0
LINE
  5
AC1
330
A02
100
AcDbEntity
  8
Shape2DView
100
AcDbLine
 10
13.8917
 20
-37.9173
 30
0
 11
14.0987
 21
-38.6901
 31
0
  0
LINE
  5
AC2
330
A02
100
AcDbEntity
  8
Shape2DView
100
AcDbLine
 10
14.6644
 20
-38.1244
 30
0
 11
13.8917
 21
-37.9173
 31
0
  0
ARC
  5
AC3
330
A02
100
AcDbEntity
  8
Shape2DView
100
AcDbCircle
 10
11.9941
 20
-36.0198
 30
0
 40
3.4
100
AcDbArc
 50
-38.2437
 51
38.2437
  0
LINE
  5
AC4
330
A02
100
AcDbEntity
  8
Shape2DView
100
AcDbLine
 10
13.8917
 20
-34.1222
 30
0
 11
14.6644
 21
-33.9151
 31
0
  0
LINE
  5
AC5
330
A02
100
AcDbEntity
  8
Shape2DView
100
AcDbLine
 10
14.0987
 20
-33.3494
 30
0
 11
13.8917
 21
-34.1222
 31
0
  0
ARC
  5
AC6
330
A02
100
AcDbEntity
  8
Shape2DView
100
AcDbCircle
 10
11.9941
 20
-36.0198
 30
0
 40
3.4
100
AcDbArc
 50
51.7563
 51
128.244
  0
LINE
  5
AC7
330
A02
100
AcDbEntity
  8
Shape2DView
100
AcDbLine
 10
10.0965
 20
-34.1222
 30
0
 11
9.88947
 21
-33.3494
 31
0
  0
LINE
  5
AC8
330
A02
100
AcDbEntity
  8
Shape2DView
100
AcDbLine
 10
9.32378
 20
-33.9151
 30
0
 11
10.0965
 21
-34.1222
 31
0
  0
ARC
  5
AC9
330
A02
100
AcDbEntity
  8
Shape2DView
100
AcDbCircle
 10
11.9941
 20
-36.0198
 30
0
 40
3.4
100
AcDbArc
 50
141.756
 51
-141.756
  0
LINE
  5
ACA
330
A02
100
AcDbEntity
  8
Shape2DView
100
AcDbLine
 10
10.0965
 20
-37.9173
 30
0
 11
9.32378
 21
-38.1244
 31
0
  0
LINE
  5
ACB
330
A02
100
AcDbEntity
  8
Shape2DView
100
AcDbLine
 10
9.88947
 20
-38.6901
 30
0
 11
10.0965
 21
-37.9173
 31
0
  0
ARC
  5
ACC
330
A02
100
AcDbEntity
  8
Shape2DView
100
AcDbCircle
 10
11.9979
 20
-20.0126
 30
0
 40
3.4
100
AcDbArc
 50
-128.244
 51
-51.7563
  0
LINE
  5
ACD
330
A02
100
AcDbEntity
  8
Shape2DView
100
AcDbLine
 10
13.8955
 20
-21.9102
 30
0
 11
14.1025
 21
-22.6829
 31
0
  0
LINE
  5
ACE
330
A02
100
AcDbEntity
  8
Shape2DView
100
AcDbLine
 10
14.6682
 20
-22.1172
 30
0
 11
13.8955
 21
-21.9102
 31
0
  0
ARC
  5
ACF
330
A02
100
AcDbEntity
  8
Shape2DView
100
AcDbCircle
 10
11.9979
 20
-20.0126
 30
0
 40
3.4
100
AcDbArc
 50
-38.2437
 51
38.2437
  0
LINE
  5
AD0
330
A02
100
AcDbEntity
  8
Shape2DView
100
AcDbLine
 10
13.8955
 20
-18.115
 30
0
 11
14.6682
 21
-17.908
 31
0
  0
LINE
  5
AD1
330
A02
100
AcDbEntity
  8
Shape2DView
100
AcDbLine
 10
14.1025
 20
-17.3423
 30
0
 11
13.8955
 21
-18.115
 31
0
  0
ARC
  5
AD2
330
A02
100
AcDbEntity
  8
Shape2DView
100
AcDbCircle
 10
11.9979
 20
-20.0126
 30
0
 40
3.4
100
AcDbArc
 50
51.7563
 51
128.244
  0
LINE
  5
AD3
330
A02
100
AcDbEntity
  8
Shape2DView
100
AcDbLine
 10
10.1003
 20
-18.115
 30
0
 11
9.89326
 21
-17.3423
 31
0
  0
LINE
  5
AD4
330
A02
100
AcDbEntity
  8
Shape2DView
100
AcDbLine
 10
9.32757
 20
-17.908
 30
0
 11
10.1003
 21
-18.115
 31
0
  0
ARC
  5
AD5
330
A02
100
AcDbEntity
  8
Shape2DView
100
AcDbCircle
 10
11.9979
 20
-20.0126
 30
0
 40
3.4
100
AcDbArc
 50
141.756
 51
-141.756
  0
LINE
  5
AD6
330
A02
100
AcDbEntity
  8
Shape2DView
100
AcDbLine
 10
10.1003
 20
-21.9102
 30
0
 11
9.32757
 21
-22.1172
 31
0
  0
LINE
  5
AD7
330
A02
100
AcDbEntity
  8
Shape2DView
100
AcDbLine
 10
9.89326
 20
-22.6829
 30
0
 11
10.1003
 21
-21.9102
 31
0
  0
ARC
  5
AD8
330
A02
100
AcDbEntity
  8
Shape2DView
100
AcDbCircle
 10
60.0231
 20
-4.01684
 30
0
 40
3.4
100
AcDbArc
 50
-128.244
 51
-51.7563
  0
LINE
  5
AD9
330
A02
100
AcDbEntity
  8
Shape2DView
100
AcDbLine
 10
61.9207
 20
-5.91441
 30
0
 11
62.1277
 21
-6.68715
 31
0
  0
LINE
  5
ADA
330
A02
100
AcDbEntity
  8
Shape2DView
100
AcDbLine
 10
62.6934
 20
-6.12147
 30
0
 11
61.9207
 21
-5.91441
 31
0
  0
ARC
  5
ADB
330
A02
100
AcDbEntity
  8
Shape2DView
100
AcDbCircle
 10
60.0231
 20
-4.01684
 30
0
 40
3.4
100
AcDbArc
 50
-38.2437
 51
38.2437
  0
LINE
  5
ADC
330
A02
100
AcDbEntity
  8
Shape2DView
100
AcDbLine
 10
61.9207
 20
-2.11927
 30
0
 11
62.6934
 21
-1.91222
 31
0
  0
LINE
  5
ADD
330
A02
100
AcDbEntity
  8
Shape2DView
100
AcDbLine
 10
62.1277
 20
-1.34653
 30
0
 11
61.9207
 21
-2.11927
 31
0
  0
ARC
  5
ADE
330
A02
100
AcDbEntity
  8
Shape2DView
100
AcDbCircle
 10
60.0231
 20
-4.01684
 30
0
 40
3.4
100
AcDbArc
 50
51.7563
 51
128.244
  0
LINE
  5
ADF
330
A02
100
AcDbEntity
  8
Shape2DView
100
AcDbLine
 10
58.1255
 20
-2.11927
 30
0
 11
57.9185
 21
-1.34653
 31
0
  0
LINE
  5
AE0
330
A02
100
AcDbEntity
  8
Shape2DView
100
AcDbLine
 10
57.3528
 20
-1.91222
 30
0
 11
58.1255
 21
-2.11927
 31
0
  0
ARC
  5
AE1
330
A02
100
AcDbEntity
  8
Shape2DView
100
AcDbCircle
 10
60.0231
 20
-4.01684
 30
0
 40
3.4
100
AcDbArc
 50
141.756
 51
-141.756
  0
LINE
  5
AE2
330
A02
100
AcDbEntity
  8
Shape2DView
100
AcDbLine
 10
58.1255
 20
-5.91441
 30
0
 11
57.3528
 21
-6.12147
 31
0
  0
LINE
  5
AE3
330
A02
100
AcDbEntity
  8
Shape2DView
100
AcDbLine
 10
57.9185
 20
-6.68715
 30
0
 11
58.1255
 21
-5.91441
 31
0
  0
ARC
  5
AE4
330
A02
100
AcDbEntity
  8
Shape2DView
100
AcDbCircle
 10
52.0195
 20
-4.01495
 30
0
 40
3.4
100
AcDbArc
 50
-128.244
 51
-51.7563
  0
LINE
  5
AE5
330
A02
100
AcDbEntity
  8
Shape2DView
100
AcDbLine
 10
53.9171
 20
-5.91252
 30
0
 11
54.1242
 21
-6.68526
 31
0
  0
LINE
  5
AE6
330
A02
100
AcDbEntity
  8
Shape2DView
100
AcDbLine
 10
54.6898
 20
-6.11957
 30
0
 11
53.9171
 21
-5.91252
 31
0
  0
ARC
  5
AE7
330
A02
100
AcDbEntity
  8
Shape2DView
100
AcDbCircle
 10
52.0195
 20
-4.01495
 30
0
 40
3.4
100
AcDbArc
 50
-38.2437
 51
38.2437
  0
LINE
  5
AE8
330
A02
100
AcDbEntity
  8
Shape2DView
100
AcDbLine
 10
53.9171
 20
-2.11738
 30
0
 11
54.6898
 21
-1.91032
 31
0
  0
LINE
  5
AE9
330
A02
100
AcDbEntity
  8
Shape2DView
100
AcDbLine
 10
54.1242
 20
-1.34464
 30
0
 11
53.9171
 21
-2.11738
 31
0
  0
ARC
  5
AEA
330
A02
100
AcDbEntity
  8
Shape2DView
100
AcDbCircle
 10
52.0195
 20
-4.01495
 30
0
 40
3.4
100
AcDbArc
 50
51.7563
 51
128.244
  0
LINE
  5
AEB
330
A02
100
AcDbEntity
  8
Shape2DView
100
AcDbLine
 10
50.122
 20
-2.11738
 30
0
 11
49.9149
 21
-1.34464
 31
0
  0
LINE
  5
AEC
330
A02
100
AcDbEntity
  8
Shape2DView
100
AcDbLine
 10
49.3492
 20
-1.91032
 30
0
 11
50.122
 21
-2.11738
 31
0
  0
ARC
  5
AED
330
A02
100
AcDbEntity
  8
Shape2DView
100
AcDbCircle
 10
52.0195
 20
-4.01495
 30
0
 40
3.4
100
AcDbArc
 50
141.756
 51
-141.756
  0
LINE
  5
AEE
330
A02
100
AcDbEntity
  8
Shape2DView
100
AcDbLine
 10
50.122
 20
-5.91252
 30
0
 11
49.3492
 21
-6.11957
 31
0
  0
LINE
  5
AEF
330
A02
100
AcDbEntity
  8
Shape2DView
100
AcDbLine
 10
49.9149
 20
-6.68526
 30
0
 11
50.122
 21
-5.91252
 31
0
  0
ARC
  5
AF0
330
A02
100
AcDbEntity
  8
Shape2DView
100
AcDbCircle
 10
44.016
 20
-4.01305
 30
0
 40
3.4
100
AcDbArc
 50
-128.244
 51
-51.7563
  0
LINE
  5
AF1
330
A02
100
AcDbEntity
  8
Shape2DView
100
AcDbLine
 10
45.9135
 20
-5.91062
 30
0
 11
46.1206
 21
-6.68336
 31
0
  0
LINE
  5
AF2
330
A02
100
AcDbEntity
  8
Shape2DView
100
AcDbLine
 10
46.6863
 20
-6.11768
 30
0
 11
45.9135
 21
-5.91062
 31
0
  0
ARC
  5
AF3
330
A02
100
AcDbEntity
  8
Shape2DView
100
AcDbCircle
 10
44.016
 20
-4.01305
 30
0
 40
3.4
100
AcDbArc
 50
-38.2437
 51
38.2437
  0
LINE
  5
AF4
330
A02
100
AcDbEntity
  8
Shape2DView
100
AcDbLine
 10
45.9135
 20
-2.11548
 30
0
 11
46.6863
 21
-1.90843
 31
0
  0
LINE
  5
AF5
330
A02
100
AcDbEntity
  8
Shape2DView
100
AcDbLine
 10
46.1206
 20
-1.34274
 30
0
 11
45.9135
 21
-2.11548
 31
0
  0
ARC
  5
AF6
330
A02
100
AcDbEntity
  8
Shape2DView
100
AcDbCircle
 10
44.016
 20
-4.01305
 30
0
 40
3.4
100
AcDbArc
 50
51.7563
 51
128.244
  0
LINE
  5
AF7
330
A02
100
AcDbEntity
  8
Shape2DView
100
AcDbLine
 10
42.1184
 20
-2.11548
 30
0
 11
41.9113
 21
-1.34274
 31
0
  0
LINE
  5
AF8
330
A02
100
AcDbEntity
  8
Shape2DView
100
AcDbLine
 10
41.3456
 20
-1.90843
 30
0
 11
42.1184
 21
-2.11548
 31
0
  0
ARC
  5
AF9
330
A02
100
AcDbEntity
  8
Shape2DView
100
AcDbCircle
 10
44.016
 20
-4.01305
 30
0
 40
3.4
100
AcDbArc
 50
141.756
 51
-141.756
  0
LINE
  5
AFA
330
A02
100
AcDbEntity
  8
Shape2DView
100
AcDbLine
 10
42.1184
 20
-5.91062
 30
0
 11
41.3456
 21
-6.11768
 31
0
  0
LINE
  5
AFB
330
A02
100
AcDbEntity
  8
Shape2DView
100
AcDbLine
 10
41.9113
 20
-6.68336
 30
0
 11
42.1184
 21
-5.91062
 31
0
  0
ARC
  5
AFC
330
A02
100
AcDbEntity
  8
Shape2DView
100
AcDbCircle
 10
36.0124
 20
-4.01116
 30
0
 40
3.4
100
AcDbArc
 50
-128.244
 51
-51.7563
  0
LINE
  5
AFD
330
A02
100
AcDbEntity
  8
Shape2DView
100
AcDbLine
 10
37.91
 20
-5.90872
 30
0
 11
38.117
 21
-6.68146
 31
0
  0
LINE
  5
AFE
330
A02
100
AcDbEntity
  8
Shape2DView
100
AcDbLine
 10
38.6827
 20
-6.11578
 30
0
 11
37.91
 21
-5.90872
 31
0
  0
ARC
  5
AFF
330
A02
100
AcDbEntity
  8
Shape2DView
100
AcDbCircle
 10
36.0124
 20
-4.01116
 30
0
 40
3.4
100
AcDbArc
 50
-38.2437
 51
38.2437
  0
LINE
  5
B00
330
A02
100
AcDbEntity
  8
Shape2DView
100
AcDbLine
 10
37.91
 20
-2.11359
 30
0
 11
38.6827
 21
-1.90653
 31
0
  0
LINE
  5
B01
330
A02
100
AcDbEntity
  8
Shape2DView
100
AcDbLine
 10
38.117
 20
-1.34085
 30
0
 11
37.91
 21
-2.11359
 31
0
  0
ARC
  5
B02
330
A02
100
AcDbEntity
  8
Shape2DView
100
AcDbCircle
 10
36.0124
 20
-4.01116
 30
0
 40
3.4
100
AcDbArc
 50
51.7563
 51
128.244
  0
LINE
  5
B03
330
A02
100
AcDbEntity
  8
Shape2DView
100
AcDbLine
 10
34.1148
 20
-2.11359
 30
0
 11
33.9078
 21
-1.34085
 31
0
  0
LINE
  5
B04
330
A02
100
AcDbEntity
  8
Shape2DView
100
AcDbLine
 10
33.3421
 20
-1.90653
 30
0
 11
34.1148
 21
-2.11359
 31
0
  0
ARC
  5
B05
330
A02
100
AcDbEntity
  8
Shape2DView
100
AcDbCircle
 10
36.0124
 20
-4.01116
 30
0
 40
3.4
100
AcDbArc
 50
141.756
 51
-141.756
  0
LINE
  5
B06
330
A02
100
AcDbEntity
  8
Shape2DView
100
AcDbLine
 10
34.1148
 20
-5.90872
 30
0
 11
33.3421
 21
-6.11578
 31
0
  0
LINE
  5
B07
330
A02
100
AcDbEntity
  8
Shape2DView
100
AcDbLine
 10
33.9078
 20
-6.68146
 30
0
 11
34.1148
 21
-5.90872
 31
0
  0
ARC
  5
B08
330
A02
100
AcDbEntity
  8
Shape2DView
100
AcDbCircle
 10
3.98862
 20
-44.0214
 30
0
 40
3.4
100
AcDbArc
 50
-128.244
 51
-51.7563
  0
LINE
  5
B09
330
A02
100
AcDbEntity
  8
Shape2DView
100
AcDbLine
 10
5.88619
 20
-45.919
 30
0
 11
6.09325
 21
-46.6917
 31
0
  0
LINE
  5
B0A
330
A02
100
AcDbEntity
  8
Shape2DView
100
AcDbLine
 10
6.65893
 20
-46.1261
 30
0
 11
5.88619
 21
-45.919
 31
0
  0
ARC
  5
B0B
330
A02
100
AcDbEntity
  8
Shape2DView
100
AcDbCircle
 10
3.98862
 20
-44.0214
 30
0
 40
3.4
100
AcDbArc
 50
-38.2437
 51
38.2437
  0
LINE
  5
B0C
330
A02
100
AcDbEntity
  8
Shape2DView
100
AcDbLine
 10
5.88619
 20
-42.1239
 30
0
 11
6.65893
 21
-41.9168
 31
0
  0
LINE
  5
B0D
330
A02
100
AcDbEntity
  8
Shape2DView
100
AcDbLine
 10
6.09325
 20
-41.3511
 30
0
 11
5.88619
 21
-42.1239
 31
0
  0
ARC
  5
B0E
330
A02
100
AcDbEntity
  8
Shape2DView
100
AcDbCircle
 10
3.98862
 20
-44.0214
 30
0
 40
3.4
100
AcDbArc
 50
51.7563
 51
128.244
  0
LINE
  5
B0F
330
A02
100
AcDbEntity
  8
Shape2DView
100
AcDbLine
 10
2.09105
 20
-42.1239
 30
0
 11
1.884
 21
-41.3511
 31
0
  0
LINE
  5
B10
330
A02
100
AcDbEntity
  8
Shape2DView
100
AcDbLine
 10
1.31831
 20
-41.9168
 30
0
 11
2.09105
 21
-42.1239
 31
0
  0
ARC
  5
B11
330
A02
100
AcDbEntity
  8
Shape2DView
100
AcDbCircle
 10
3.98862
 20
-44.0214
 30
0
 40
3.4
100
AcDbArc
 50
141.756
 51
-141.756
  0
LINE
  5
B12
330
A02
100
AcDbEntity
  8
Shape2DView
100
AcDbLine
 10
2.09105
 20
-45.919
 30
0
 11
1.31831
 21
-46.1261
 31
0
  0
LINE
  5
B13
330
A02
100
AcDbEntity
  8
Shape2DView
100
AcDbLine
 10
1.884
 20
-46.6917
 30
0
 11
2.09105
 21
-45.919
 31
0
  0
ARC
  5
B14
330
A02
100
AcDbEntity
  8
Shape2DView
100
AcDbCircle
 10
11.9922
 20
-44.0233
 30
0
 40
3.4
100
AcDbArc
 50
-128.244
 51
-51.7563
  0
LINE
  5
B15
330
A02
100
AcDbEntity
  8
Shape2DView
100
AcDbLine
 10
13.8898
 20
-45.9209
 30
0
 11
14.0968
 21
-46.6936
 31
0
  0
LINE
  5
B16
330
A02
100
AcDbEntity
  8
Shape2DView
100
AcDbLine
 10
14.6625
 20
-46.1279
 30
0
 11
13.8898
 21
-45.9209
 31
0
  0
ARC
  5
B17
330
A02
100
AcDbEntity
  8
Shape2DView
100
AcDbCircle
 10
11.9922
 20
-44.0233
 30
0
 40
3.4
100
AcDbArc
 50
-38.2437
 51
38.2437
  0
LINE
  5
B18
330
A02
100
AcDbEntity
  8
Shape2DView
100
AcDbLine
 10
13.8898
 20
-42.1258
 30
0
 11
14.6625
 21
-41.9187
 31
0
  0
LINE
  5
B19
330
A02
100
AcDbEntity
  8
Shape2DView
100
AcDbLine
 10
14.0968
 20
-41.353
 30
0
 11
13.8898
 21
-42.1258
 31
0
  0
ARC
  5
B1A
330
A02
100
AcDbEntity
  8
Shape2DView
100
AcDbCircle
 10
11.9922
 20
-44.0233
 30
0
 40
3.4
100
AcDbArc
 50
51.7563
 51
128.244
  0
LINE
  5
B1B
330
A02
100
AcDbEntity
  8
Shape2DView
100
AcDbLine
 10
10.0946
 20
-42.1258
 30
0
 11
9.88757
 21
-41.353
 31
0
  0
LINE
  5
B1C
330
A02
100
AcDbEntity
  8
Shape2DView
100
AcDbLine
 10
9.32189
 20
-41.9187
 30
0
 11
10.0946
 21
-42.1258
 31
0
  0
ARC
  5
B1D
330
A02
100
AcDbEntity
  8
Shape2DView
100
AcDbCircle
 10
11.9922
 20
-44.0233
 30
0
 40
3.4
100
AcDbArc
 50
141.756
 51
-141.756
  0
LINE
  5
B1E
330
A02
100
AcDbEntity
  8
Shape2DView
100
AcDbLine
 10
10.0946
 20
-45.9209
 30
0
 11
9.32189
 21
-46.1279
 31
0
  0
LINE
  5
B1F
330
A02
100
AcDbEntity
  8
Shape2DView
100
AcDbLine
 10
9.88757
 20
-46.6936
 30
0
 11
10.0946
 21
-45.9209
 31
0
  0
ARC
  5
B20
330
A02
100
AcDbEntity
  8
Shape2DView
100
AcDbCircle
 10
60.025
 20
3.98673
 30
0
 40
3.4
100
AcDbArc
 50
-128.244
 51
-51.7563
  0
LINE
  5
B21
330
A02
100
AcDbEntity
  8
Shape2DView
100
AcDbLine
 10
61.9226
 20
2.08916
 30
0
 11
62.1296
 21
1.31642
 31
0
  0
LINE
  5
B22
330
A02
100
AcDbEntity
  8
Shape2DView
100
AcDbLine
 10
62.6953
 20
1.8821
 30
0
 11
61.9226
 21
2.08916
 31
0
  0
ARC
  5
B23
330
A02
100
AcDbEntity
  8
Shape2DView
100
AcDbCircle
 10
60.025
 20
3.98673
 30
0
 40
3.4
100
AcDbArc
 50
-38.2437
 51
38.2437
  0
LINE
  5
B24
330
A02
100
AcDbEntity
  8
Shape2DView
100
AcDbLine
 10
61.9226
 20
5.8843
 30
0
 11
62.6953
 21
6.09135
 31
0
  0
LINE
  5
B25
330
A02
100
AcDbEntity
  8
Shape2DView
100
AcDbLine
 10
62.1296
 20
6.65704
 30
0
 11
61.9226
 21
5.8843
 31
0
  0
ARC
  5
B26
330
A02
100
AcDbEntity
  8
Shape2DView
100
AcDbCircle
 10
60.025
 20
3.98673
 30
0
 40
3.4
100
AcDbArc
 50
51.7563
 51
128.244
  0
LINE
  5
B27
330
A02
100
AcDbEntity
  8
Shape2DView
100
AcDbLine
 10
58.1274
 20
5.8843
 30
0
 11
57.9204
 21
6.65704
 31
0
  0
LINE
  5
B28
330
A02
100
AcDbEntity
  8
Shape2DView
100
AcDbLine
 10
57.3547
 20
6.09135
 30
0
 11
58.1274
 21
5.8843
 31
0
  0
ARC
  5
B29
330
A02
100
AcDbEntity
  8
Shape2DView
100
AcDbCircle
 10
60.025
 20
3.98673
 30
0
 40
3.4
100
AcDbArc
 50
141.756
 51
-141.756
  0
LINE
  5
B2A
330
A02
100
AcDbEntity
  8
Shape2DView
100
AcDbLine
 10
58.1274
 20
2.08916
 30
0
 11
57.3547
 21
1.8821
 31
0
  0
LINE
  5
B2B
330
A02
100
AcDbEntity
  8
Shape2DView
100
AcDbLine
 10
57.9204
 20
1.31642
 30
0
 11
58.1274
 21
2.08916
 31
0
  0
ARC
  5
B2C
330
A02
100
AcDbEntity
  8
Shape2DView
100
AcDbCircle
 10
52.0214
 20
3.98862
 30
0
 40
3.4
100
AcDbArc
 50
-128.244
 51
-51.7563
  0
LINE
  5
B2D
330
A02
100
AcDbEntity
  8
Shape2DView
100
AcDbLine
 10
53.919
 20
2.09105
 30
0
 11
54.1261
 21
1.31831
 31
0
  0
LINE
  5
B2E
330
A02
100
AcDbEntity
  8
Shape2DView
100
AcDbLine
 10
54.6917
 20
1.884
 30
0
 11
53.919
 21
2.09105
 31
0
  0
ARC
  5
B2F
330
A02
100
AcDbEntity
  8
Shape2DView
100
AcDbCircle
 10
52.0214
 20
3.98862
 30
0
 40
3.4
100
AcDbArc
 50
-38.2437
 51
38.2437
  0
LINE
  5
B30
330
A02
100
AcDbEntity
  8
Shape2DView
100
AcDbLine
 10
53.919
 20
5.88619
 30
0
 11
54.6917
 21
6.09325
 31
0
  0
LINE
  5
B31
330
A02
100
AcDbEntity
  8
Shape2DView
100
AcDbLine
 10
54.1261
 20
6.65893
 30
0
 11
53.919
 21
5.88619
 31
0
  0
ARC
  5
B32
330
A02
100
AcDbEntity
  8
Shape2DView
100
AcDbCircle
 10
52.0214
 20
3.98862
 30
0
 40
3.4
100
AcDbArc
 50
51.7563
 51
128.244
  0
LINE
  5
B33
330
A02
100
AcDbEntity
  8
Shape2DView
100
AcDbLine
 10
50.1239
 20
5.88619
 30
0
 11
49.9168
 21
6.65893
 31
0
  0
LINE
  5
B34
330
A02
100
AcDbEntity
  8
Shape2DView
100
AcDbLine
 10
49.3511
 20
6.09325
 30
0
 11
50.1239
 21
5.88619
 31
0
  0
ARC
  5
B35
330
A02
100
AcDbEntity
  8
Shape2DView
100
AcDbCircle
 10
52.0214
 20
3.98862
 30
0
 40
3.4
100
AcDbArc
 50
141.756
 51
-141.756
  0
LINE
  5
B36
330
A02
100
AcDbEntity
  8
Shape2DView
100
AcDbLine
 10
50.1239
 20
2.09105
 30
0
 11
49.3511
 21
1.884
 31
0
  0
LINE
  5
B37
330
A02
100
AcDbEntity
  8
Shape2DView
100
AcDbLine
 10
49.9168
 20
1.31831
 30
0
 11
50.1239
 21
2.09105
 31
0
  0
ARC
  5
B38
330
A02
100
AcDbEntity
  8
Shape2DView
100
AcDbCircle
 10
3.98673
 20
-52.025
 30
0
 40
3.4
100
AcDbArc
 50
-128.244
 51
-51.7563
  0
LINE
  5
B39
330
A02
100
AcDbEntity
  8
Shape2DView
100
AcDbLine
 10
5.8843
 20
-53.9226
 30
0
 11
6.09135
 21
-54.6953
 31
0
  0
LINE
  5
B3A
330
A02
100
AcDbEntity
  8
Shape2DView
100
AcDbLine
 10
6.65704
 20
-54.1296
 30
0
 11
5.8843
 21
-53.9226
 31
0
  0
ARC
  5
B3B
330
A02
100
AcDbEntity
  8
Shape2DView
100
AcDbCircle
 10
3.98673
 20
-52.025
 30
0
 40
3.4
100
AcDbArc
 50
-38.2437
 51
38.2437
  0
LINE
  5
B3C
330
A02
100
AcDbEntity
  8
Shape2DView
100
AcDbLine
 10
5.8843
 20
-50.1274
 30
0
 11
6.65704
 21
-49.9204
 31
0
  0
LINE
  5
B3D
330
A02
100
AcDbEntity
  8
Shape2DView
100
AcDbLine
 10
6.09135
 20
-49.3547
 30
0
 11
5.8843
 21
-50.1274
 31
0
  0
ARC
  5
B3E
330
A02
100
AcDbEntity
  8
Shape2DView
100
AcDbCircle
 10
3.98673
 20
-52.025
 30
0
 40
3.4
100
AcDbArc
 50
51.7563
 51
128.244
  0
LINE
  5
B3F
330
A02
100
AcDbEntity
  8
Shape2DView
100
AcDbLine
 10
2.08916
 20
-50.1274
 30
0
 11
1.8821
 21
-49.3547
 31
0
  0
LINE
  5
B40
330
A02
100
AcDbEntity
  8
Shape2DView
100
AcDbLine
 10
1.31642
 20
-49.9204
 30
0
 11
2.08916
 21
-50.1274
 31
0
  0
ARC
  5
B41
330
A02
100
AcDbEntity
  8
Shape2DView
100
AcDbCircle
 10
3.98673
 20
-52.025
 30
0
 40
3.4
100
AcDbArc
 50
141.756
 51
-141.756
  0
LINE
  5
B42
330
A02
100
AcDbEntity
  8
Shape2DView
100
AcDbLine
 10
2.08916
 20
-53.9226
 30
0
 11
1.31642
 21
-54.1296
 31
0
  0
LINE
  5
B43
330
A02
100
AcDbEntity
  8
Shape2DView
100
AcDbLine
 10
1.8821
 20
-54.6953
 30
0
 11
2.08916
 21
-53.9226
 31
0
  0
ARC
  5
B44
330
A02
100
AcDbEntity
  8
Shape2DView
100
AcDbCircle
 10
11.9903
 20
-52.0269
 30
0
 40
3.4
100
AcDbArc
 50
-128.244
 51
-51.7563
  0
LINE
  5
B45
330
A02
100
AcDbEntity
  8
Shape2DView
100
AcDbLine
 10
13.8879
 20
-53.9245
 30
0
 11
14.0949
 21
-54.6972
 31
0
  0
LINE
  5
B46
330
A02
100
AcDbEntity
  8
Shape2DView
100
AcDbLine
 10
14.6606
 20
-54.1315
 30
0
 11
13.8879
 21
-53.9245
 31
0
  0
ARC
  5
B47
330
A02
100
AcDbEntity
  8
Shape2DView
100
AcDbCircle
 10
11.9903
 20
-52.0269
 30
0
 40
3.4
100
AcDbArc
 50
-38.2437
 51
38.2437
  0
LINE
  5
B48
330
A02
100
AcDbEntity
  8
Shape2DView
100
AcDbLine
 10
13.8879
 20
-50.1293
 30
0
 11
14.6606
 21
-49.9223
 31
0
  0
LINE
  5
B49
330
A02
100
AcDbEntity
  8
Shape2DView
100
AcDbLine
 10
14.0949
 20
-49.3566
 30
0
 11
13.8879
 21
-50.1293
 31
0
  0
ARC
  5
B4A
330
A02
100
AcDbEntity
  8
Shape2DView
100
AcDbCircle
 10
11.9903
 20
-52.0269
 30
0
 40
3.4
100
AcDbArc
 50
51.7563
 51
128.244
  0
LINE
  5
B4B
330
A02
100
AcDbEntity
  8
Shape2DView
100
AcDbLine
 10
10.0927
 20
-50.1293
 30
0
 11
9.88567
 21
-49.3566
 31
0
  0
LINE
  5
B4C
330
A02
100
AcDbEntity
  8
Shape2DView
100
AcDbLine
 10
9.31999
 20
-49.9223
 30
0
 11
10.0927
 21
-50.1293
 31
0
  0
ARC
  5
B4D
330
A02
100
AcDbEntity
  8
Shape2DView
100
AcDbCircle
 10
11.9903
 20
-52.0269
 30
0
 40
3.4
100
AcDbArc
 50
141.756
 51
-141.756
  0
LINE
  5
B4E
330
A02
100
AcDbEntity
  8
Shape2DView
100
AcDbLine
 10
10.0927
 20
-53.9245
 30
0
 11
9.31999
 21
-54.1315
 31
0
  0
LINE
  5
B4F
330
A02
100
AcDbEntity
  8
Shape2DView
100
AcDbLine
 10
9.88567
 20
-54.6972
 30
0
 11
10.0927
 21
-53.9245
 31
0
  0
ARC
  5
B50
330
A02
100
AcDbEntity
  8
Shape2DView
100
AcDbCircle
 10
44.0179
 20
3.99052
 30
0
 40
3.4
100
AcDbArc
 50
-128.244
 51
-51.7563
  0
LINE
  5
B51
330
A02
100
AcDbEntity
  8
Shape2DView
100
AcDbLine
 10
45.9154
 20
2.09295
 30
0
 11
46.1225
 21
1.32021
 31
0
  0
LINE
  5
B52
330
A02
100
AcDbEntity
  8
Shape2DView
100
AcDbLine
 10
46.6882
 20
1.8859
 30
0
 11
45.9154
 21
2.09295
 31
0
  0
ARC
  5
B53
330
A02
100
AcDbEntity
  8
Shape2DView
100
AcDbCircle
 10
44.0179
 20
3.99052
 30
0
 40
3.4
100
AcDbArc
 50
-38.2437
 51
38.2437
  0
LINE
  5
B54
330
A02
100
AcDbEntity
  8
Shape2DView
100
AcDbLine
 10
45.9154
 20
5.88809
 30
0
 11
46.6882
 21
6.09514
 31
0
  0
LINE
  5
B55
330
A02
100
AcDbEntity
  8
Shape2DView
100
AcDbLine
 10
46.1225
 20
6.66083
 30
0
 11
45.9154
 21
5.88809
 31
0
  0
ARC
  5
B56
330
A02
100
AcDbEntity
  8
Shape2DView
100
AcDbCircle
 10
44.0179
 20
3.99052
 30
0
 40
3.4
100
AcDbArc
 50
51.7563
 51
128.244
  0
LINE
  5
B57
330
A02
100
AcDbEntity
  8
Shape2DView
100
AcDbLine
 10
42.1203
 20
5.88809
 30
0
 11
41.9132
 21
6.66083
 31
0
  0
LINE
  5
B58
330
A02
100
AcDbEntity
  8
Shape2DView
100
AcDbLine
 10
41.3475
 20
6.09514
 30
0
 11
42.1203
 21
5.88809
 31
0
  0
ARC
  5
B59
330
A02
100
AcDbEntity
  8
Shape2DView
100
AcDbCircle
 10
44.0179
 20
3.99052
 30
0
 40
3.4
100
AcDbArc
 50
141.756
 51
-141.756
  0
LINE
  5
B5A
330
A02
100
AcDbEntity
  8
Shape2DView
100
AcDbLine
 10
42.1203
 20
2.09295
 30
0
 11
41.3475
 21
1.8859
 31
0
  0
LINE
  5
B5B
330
A02
100
AcDbEntity
  8
Shape2DView
100
AcDbLine
 10
41.9132
 20
1.32021
 30
0
 11
42.1203
 21
2.09295
 31
0
  0
ARC
  5
B5C
330
A02
100
AcDbEntity
  8
Shape2DView
100
AcDbCircle
 10
36.0143
 20
3.99242
 30
0
 40
3.4
100
AcDbArc
 50
-128.244
 51
-51.7563
  0
LINE
  5
B5D
330
A02
100
AcDbEntity
  8
Shape2DView
100
AcDbLine
 10
37.9119
 20
2.09485
 30
0
 11
38.1189
 21
1.32211
 31
0
  0
LINE
  5
B5E
330
A02
100
AcDbEntity
  8
Shape2DView
100
AcDbLine
 10
38.6846
 20
1.88779
 30
0
 11
37.9119
 21
2.09485
 31
0
  0
ARC
  5
B5F
330
A02
100
AcDbEntity
  8
Shape2DView
100
AcDbCircle
 10
36.0143
 20
3.99242
 30
0
 40
3.4
100
AcDbArc
 50
-38.2437
 51
38.2437
  0
LINE
  5
B60
330
A02
100
AcDbEntity
  8
Shape2DView
100
AcDbLine
 10
37.9119
 20
5.88999
 30
0
 11
38.6846
 21
6.09704
 31
0
  0
LINE
  5
B61
330
A02
100
AcDbEntity
  8
Shape2DView
100
AcDbLine
 10
38.1189
 20
6.66273
 30
0
 11
37.9119
 21
5.88999
 31
0
  0
ARC
  5
B62
330
A02
100
AcDbEntity
  8
Shape2DView
100
AcDbCircle
 10
36.0143
 20
3.99242
 30
0
 40
3.4
100
AcDbArc
 50
51.7563
 51
128.244
  0
LINE
  5
B63
330
A02
100
AcDbEntity
  8
Shape2DView
100
AcDbLine
 10
34.1167
 20
5.88999
 30
0
 11
33.9097
 21
6.66273
 31
0
  0
LINE
  5
B64
330
A02
100
AcDbEntity
  8
Shape2DView
100
AcDbLine
 10
33.344
 20
6.09704
 30
0
 11
34.1167
 21
5.88999
 31
0
  0
ARC
  5
B65
330
A02
100
AcDbEntity
  8
Shape2DView
100
AcDbCircle
 10
36.0143
 20
3.99242
 30
0
 40
3.4
100
AcDbArc
 50
141.756
 51
-141.756
  0
LINE
  5
B66
330
A02
100
AcDbEntity
  8
Shape2DView
100
AcDbLine
 10
34.1167
 20
2.09485
 30
0
 11
33.344
 21
1.88779
 31
0
  0
LINE
  5
B67
330
A02
100
AcDbEntity
  8
Shape2DView
100
AcDbLine
 10
33.9097
 20
1.32211
 30
0
 11
34.1167
 21
2.09485
 31
0
  0
ARC
  5
B68
330
A02
100
AcDbEntity
  8
Shape2DView
100
AcDbCircle
 10
28.0088
 20
-4.00926
 30
0
 40
3.4
100
AcDbArc
 50
-128.244
 51
-51.7563
  0
LINE
  5
B69
330
A02
100
AcDbEntity
  8
Shape2DView
100
AcDbLine
 10
29.9064
 20
-5.90683
 30
0
 11
30.1134
 21
-6.67957
 31
0
  0
LINE
  5
B6A
330
A02
100
AcDbEntity
  8
Shape2DView
100
AcDbLine
 10
30.6791
 20
-6.11388
 30
0
 11
29.9064
 21
-5.90683
 31
0
  0
ARC
  5
B6B
330
A02
100
AcDbEntity
  8
Shape2DView
100
AcDbCircle
 10
28.0088
 20
-4.00926
 30
0
 40
3.4
100
AcDbArc
 50
-38.2437
 51
38.2437
  0
LINE
  5
B6C
330
A02
100
AcDbEntity
  8
Shape2DView
100
AcDbLine
 10
29.9064
 20
-2.11169
 30
0
 11
30.6791
 21
-1.90463
 31
0
  0
LINE
  5
B6D
330
A02
100
AcDbEntity
  8
Shape2DView
100
AcDbLine
 10
30.1134
 20
-1.33895
 30
0
 11
29.9064
 21
-2.11169
 31
0
  0
ARC
  5
B6E
330
A02
100
AcDbEntity
  8
Shape2DView
100
AcDbCircle
 10
28.0088
 20
-4.00926
 30
0
 40
3.4
100
AcDbArc
 50
51.7563
 51
128.244
  0
LINE
  5
B6F
330
A02
100
AcDbEntity
  8
Shape2DView
100
AcDbLine
 10
26.1112
 20
-2.11169
 30
0
 11
25.9042
 21
-1.33895
 31
0
  0
LINE
  5
B70
330
A02
100
AcDbEntity
  8
Shape2DView
100
AcDbLine
 10
25.3385
 20
-1.90463
 30
0
 11
26.1112
 21
-2.11169
 31
0
  0
ARC
  5
B71
330
A02
100
AcDbEntity
  8
Shape2DView
100
AcDbCircle
 10
28.0088
 20
-4.00926
 30
0
 40
3.4
100
AcDbArc
 50
141.756
 51
-141.756
  0
LINE
  5
B72
330
A02
100
AcDbEntity
  8
Shape2DView
100
AcDbLine
 10
26.1112
 20
-5.90683
 30
0
 11
25.3385
 21
-6.11388
 31
0
  0
LINE
  5
B73
330
A02
100
AcDbEntity
  8
Shape2DView
100
AcDbLine
 10
25.9042
 20
-6.67957
 30
0
 11
26.1112
 21
-5.90683
 31
0
  0
ARC
  5
B74
330
A02
100
AcDbEntity
  8
Shape2DView
100
AcDbCircle
 10
20.0052
 20
-4.00736
 30
0
 40
3.4
100
AcDbArc
 50
-128.244
 51
-51.7563
  0
LINE
  5
B75
330
A02
100
AcDbEntity
  8
Shape2DView
100
AcDbLine
 10
21.9028
 20
-5.90493
 30
0
 11
22.1099
 21
-6.67767
 31
0
  0
LINE
  5
B76
330
A02
100
AcDbEntity
  8
Shape2DView
100
AcDbLine
 10
22.6756
 20
-6.11199
 30
0
 11
21.9028
 21
-5.90493
 31
0
  0
ARC
  5
B77
330
A02
100
AcDbEntity
  8
Shape2DView
100
AcDbCircle
 10
20.0052
 20
-4.00736
 30
0
 40
3.4
100
AcDbArc
 50
-38.2437
 51
38.2437
  0
LINE
  5
B78
330
A02
100
AcDbEntity
  8
Shape2DView
100
AcDbLine
 10
21.9028
 20
-2.10979
 30
0
 11
22.6756
 21
-1.90274
 31
0
  0
LINE
  5
B79
330
A02
100
AcDbEntity
  8
Shape2DView
100
AcDbLine
 10
22.1099
 20
-1.33705
 30
0
 11
21.9028
 21
-2.10979
 31
0
  0
ARC
  5
B7A
330
A02
100
AcDbEntity
  8
Shape2DView
100
AcDbCircle
 10
20.0052
 20
-4.00736
 30
0
 40
3.4
100
AcDbArc
 50
51.7563
 51
128.244
  0
LINE
  5
B7B
330
A02
100
AcDbEntity
  8
Shape2DView
100
AcDbLine
 10
18.1077
 20
-2.10979
 30
0
 11
17.9006
 21
-1.33705
 31
0
  0
LINE
  5
B7C
330
A02
100
AcDbEntity
  8
Shape2DView
100
AcDbLine
 10
17.3349
 20
-1.90274
 30
0
 11
18.1077
 21
-2.10979
 31
0
  0
ARC
  5
B7D
330
A02
100
AcDbEntity
  8
Shape2DView
100
AcDbCircle
 10
20.0052
 20
-4.00736
 30
0
 40
3.4
100
AcDbArc
 50
141.756
 51
-141.756
  0
LINE
  5
B7E
330
A02
100
AcDbEntity
  8
Shape2DView
100
AcDbLine
 10
18.1077
 20
-5.90493
 30
0
 11
17.3349
 21
-6.11199
 31
0
  0
LINE
  5
B7F
330
A02
100
AcDbEntity
  8
Shape2DView
100
AcDbLine
 10
17.9006
 20
-6.67767
 30
0
 11
18.1077
 21
-5.90493
 31
0
  0
ARC
  5
B80
330
A02
100
AcDbEntity
  8
Shape2DView
100
AcDbCircle
 10
28.0107
 20
3.99431
 30
0
 40
3.4
100
AcDbArc
 50
-128.244
 51
-51.7563
  0
LINE
  5
B81
330
A02
100
AcDbEntity
  8
Shape2DView
100
AcDbLine
 10
29.9083
 20
2.09674
 30
0
 11
30.1153
 21
1.324
 31
0
  0
LINE
  5
B82
330
A02
100
AcDbEntity
  8
Shape2DView
100
AcDbLine
 10
30.681
 20
1.88969
 30
0
 11
29.9083
 21
2.09674
 31
0
  0
ARC
  5
B83
330
A02
100
AcDbEntity
  8
Shape2DView
100
AcDbCircle
 10
28.0107
 20
3.99431
 30
0
 40
3.4
100
AcDbArc
 50
-38.2437
 51
38.2437
  0
LINE
  5
B84
330
A02
100
AcDbEntity
  8
Shape2DView
100
AcDbLine
 10
29.9083
 20
5.89188
 30
0
 11
30.681
 21
6.09894
 31
0
  0
LINE
  5
B85
330
A02
100
AcDbEntity
  8
Shape2DView
100
AcDbLine
 10
30.1153
 20
6.66462
 30
0
 11
29.9083
 21
5.89188
 31
0
  0
ARC
  5
B86
330
A02
100
AcDbEntity
  8
Shape2DView
100
AcDbCircle
 10
28.0107
 20
3.99431
 30
0
 40
3.4
100
AcDbArc
 50
51.7563
 51
128.244
  0
LINE
  5
B87
330
A02
100
AcDbEntity
  8
Shape2DView
100
AcDbLine
 10
26.1131
 20
5.89188
 30
0
 11
25.9061
 21
6.66462
 31
0
  0
LINE
  5
B88
330
A02
100
AcDbEntity
  8
Shape2DView
100
AcDbLine
 10
25.3404
 20
6.09894
 30
0
 11
26.1131
 21
5.89188
 31
0
  0
ARC
  5
B89
330
A02
100
AcDbEntity
  8
Shape2DView
100
AcDbCircle
 10
28.0107
 20
3.99431
 30
0
 40
3.4
100
AcDbArc
 50
141.756
 51
-141.756
  0
LINE
  5
B8A
330
A02
100
AcDbEntity
  8
Shape2DView
100
AcDbLine
 10
26.1131
 20
2.09674
 30
0
 11
25.3404
 21
1.88969
 31
0
  0
LINE
  5
B8B
330
A02
100
AcDbEntity
  8
Shape2DView
100
AcDbLine
 10
25.9061
 20
1.324
 30
0
 11
26.1131
 21
2.09674
 31
0
  0
ARC
  5
B8C
330
A02
100
AcDbEntity
  8
Shape2DView
100
AcDbCircle
 10
3.99431
 20
-20.0107
 30
0
 40
3.4
100
AcDbArc
 50
-128.244
 51
-51.7563
  0
LINE
  5
B8D
330
A02
100
AcDbEntity
  8
Shape2DView
100
AcDbLine
 10
5.89188
 20
-21.9083
 30
0
 11
6.09894
 21
-22.681
 31
0
  0
LINE
  5
B8E
330
A02
100
AcDbEntity
  8
Shape2DView
100
AcDbLine
 10
6.66462
 20
-22.1153
 30
0
 11
5.89188
 21
-21.9083
 31
0
  0
ARC
  5
B8F
330
A02
100
AcDbEntity
  8
Shape2DView
100
AcDbCircle
 10
3.99431
 20
-20.0107
 30
0
 40
3.4
100
AcDbArc
 50
-38.2437
 51
38.2437
  0
LINE
  5
B90
330
A02
100
AcDbEntity
  8
Shape2DView
100
AcDbLine
 10
5.89188
 20
-18.1131
 30
0
 11
6.66462
 21
-17.9061
 31
0
  0
LINE
  5
B91
330
A02
100
AcDbEntity
  8
Shape2DView
100
AcDbLine
 10
6.09894
 20
-17.3404
 30
0
 11
5.89188
 21
-18.1131
 31
0
  0
ARC
  5
B92
330
A02
100
AcDbEntity
  8
Shape2DView
100
AcDbCircle
 10
3.99431
 20
-20.0107
 30
0
 40
3.4
100
AcDbArc
 50
51.7563
 51
128.244
  0
LINE
  5
B93
330
A02
100
AcDbEntity
  8
Shape2DView
100
AcDbLine
 10
2.09674
 20
-18.1131
 30
0
 11
1.88969
 21
-17.3404
 31
0
  0
LINE
  5
B94
330
A02
100
AcDbEntity
  8
Shape2DView
100
AcDbLine
 10
1.324
 20
-17.9061
 30
0
 11
2.09674
 21
-18.1131
 31
0
  0
ARC
  5
B95
330
A02
100
AcDbEntity
  8
Shape2DView
100
AcDbCircle
 10
3.99431
 20
-20.0107
 30
0
 40
3.4
100
AcDbArc
 50
141.756
 51
-141.756
  0
LINE
  5
B96
330
A02
100
AcDbEntity
  8
Shape2DView
100
AcDbLine
 10
2.09674
 20
-21.9083
 30
0
 11
1.324
 21
-22.1153
 31
0
  0
LINE
  5
B97
330
A02
100
AcDbEntity
  8
Shape2DView
100
AcDbLine
 10
1.88969
 20
-22.681
 30
0
 11
2.09674
 21
-21.9083
 31
0
  0
ARC
  5
B98
330
A02
100
AcDbEntity
  8
Shape2DView
100
AcDbCircle
 10
20.0071
 20
3.99621
 30
0
 40
3.4
100
AcDbArc
 50
-128.244
 51
-51.7563
  0
LINE
  5
B99
330
A02
100
AcDbEntity
  8
Shape2DView
100
AcDbLine
 10
21.9047
 20
2.09864
 30
0
 11
22.1118
 21
1.3259
 31
0
  0
LINE
  5
B9A
330
A02
100
AcDbEntity
  8
Shape2DView
100
AcDbLine
 10
22.6775
 20
1.89158
 30
0
 11
21.9047
 21
2.09864
 31
0
  0
ARC
  5
B9B
330
A02
100
AcDbEntity
  8
Shape2DView
100
AcDbCircle
 10
20.0071
 20
3.99621
 30
0
 40
3.4
100
AcDbArc
 50
-38.2437
 51
38.2437
  0
LINE
  5
B9C
330
A02
100
AcDbEntity
  8
Shape2DView
100
AcDbLine
 10
21.9047
 20
5.89378
 30
0
 11
22.6775
 21
6.10083
 31
0
  0
LINE
  5
B9D
330
A02
100
AcDbEntity
  8
Shape2DView
100
AcDbLine
 10
22.1118
 20
6.66652
 30
0
 11
21.9047
 21
5.89378
 31
0
  0
ARC
  5
B9E
330
A02
100
AcDbEntity
  8
Shape2DView
100
AcDbCircle
 10
20.0071
 20
3.99621
 30
0
 40
3.4
100
AcDbArc
 50
51.7563
 51
128.244
  0
LINE
  5
B9F
330
A02
100
AcDbEntity
  8
Shape2DView
100
AcDbLine
 10
18.1096
 20
5.89378
 30
0
 11
17.9025
 21
6.66652
 31
0
  0
LINE
  5
BA0
330
A02
100
AcDbEntity
  8
Shape2DView
100
AcDbLine
 10
17.3368
 20
6.10083
 30
0
 11
18.1096
 21
5.89378
 31
0
  0
ARC
  5
BA1
330
A02
100
AcDbEntity
  8
Shape2DView
100
AcDbCircle
 10
20.0071
 20
3.99621
 30
0
 40
3.4
100
AcDbArc
 50
141.756
 51
-141.756
  0
LINE
  5
BA2
330
A02
100
AcDbEntity
  8
Shape2DView
100
AcDbLine
 10
18.1096
 20
2.09864
 30
0
 11
17.3368
 21
1.89158
 31
0
  0
LINE
  5
BA3
330
A02
100
AcDbEntity
  8
Shape2DView
100
AcDbLine
 10
17.9025
 20
1.3259
 30
0
 11
18.1096
 21
2.09864
 31
0
  0
ARC
  5
BA4
330
A02
100
AcDbEntity
  8
Shape2DView
100
AcDbCircle
 10
28.005
 20
-20.0164
 30
0
 40
3.4
100
AcDbArc
 50
-128.244
 51
-51.7563
  0
LINE
  5
BA5
330
A02
100
AcDbEntity
  8
Shape2DView
100
AcDbLine
 10
29.9026
 20
-21.914
 30
0
 11
30.1096
 21
-22.6867
 31
0
  0
LINE
  5
BA6
330
A02
100
AcDbEntity
  8
Shape2DView
100
AcDbLine
 10
30.6753
 20
-22.121
 30
0
 11
29.9026
 21
-21.914
 31
0
  0
ARC
  5
BA7
330
A02
100
AcDbEntity
  8
Shape2DView
100
AcDbCircle
 10
28.005
 20
-20.0164
 30
0
 40
3.4
100
AcDbArc
 50
-38.2437
 51
38.2437
  0
LINE
  5
BA8
330
A02
100
AcDbEntity
  8
Shape2DView
100
AcDbLine
 10
29.9026
 20
-18.1188
 30
0
 11
30.6753
 21
-17.9118
 31
0
  0
LINE
  5
BA9
330
A02
100
AcDbEntity
  8
Shape2DView
100
AcDbLine
 10
30.1096
 20
-17.3461
 30
0
 11
29.9026
 21
-18.1188
 31
0
  0
ARC
  5
BAA
330
A02
100
AcDbEntity
  8
Shape2DView
100
AcDbCircle
 10
28.005
 20
-20.0164
 30
0
 40
3.4
100
AcDbArc
 50
51.7563
 51
128.244
  0
LINE
  5
BAB
330
A02
100
AcDbEntity
  8
Shape2DView
100
AcDbLine
 10
26.1075
 20
-18.1188
 30
0
 11
25.9004
 21
-17.3461
 31
0
  0
LINE
  5
BAC
330
A02
100
AcDbEntity
  8
Shape2DView
100
AcDbLine
 10
25.3347
 20
-17.9118
 30
0
 11
26.1075
 21
-18.1188
 31
0
  0
ARC
  5
BAD
330
A02
100
AcDbEntity
  8
Shape2DView
100
AcDbCircle
 10
28.005
 20
-20.0164
 30
0
 40
3.4
100
AcDbArc
 50
141.756
 51
-141.756
  0
LINE
  5
BAE
330
A02
100
AcDbEntity
  8
Shape2DView
100
AcDbLine
 10
26.1075
 20
-21.914
 30
0
 11
25.3347
 21
-22.121
 31
0
  0
LINE
  5
BAF
330
A02
100
AcDbEntity
  8
Shape2DView
100
AcDbLine
 10
25.9004
 20
-22.6867
 30
0
 11
26.1075
 21
-21.914
 31
0
  0
ARC
  5
BB0
330
A02
100
AcDbEntity
  8
Shape2DView
100
AcDbCircle
 10
20.0015
 20
-20.0145
 30
0
 40
3.4
100
AcDbArc
 50
-128.244
 51
-51.7563
  0
LINE
  5
BB1
330
A02
100
AcDbEntity
  8
Shape2DView
100
AcDbLine
 10
21.899
 20
-21.9121
 30
0
 11
22.1061
 21
-22.6848
 31
0
  0
LINE
  5
BB2
330
A02
100
AcDbEntity
  8
Shape2DView
100
AcDbLine
 10
22.6718
 20
-22.1191
 30
0
 11
21.899
 21
-21.9121
 31
0
  0
ARC
  5
BB3
330
A02
100
AcDbEntity
  8
Shape2DView
100
AcDbCircle
 10
20.0015
 20
-20.0145
 30
0
 40
3.4
100
AcDbArc
 50
-38.2437
 51
38.2437
  0
LINE
  5
BB4
330
A02
100
AcDbEntity
  8
Shape2DView
100
AcDbLine
 10
21.899
 20
-18.1169
 30
0
 11
22.6718
 21
-17.9099
 31
0
  0
LINE
  5
BB5
330
A02
100
AcDbEntity
  8
Shape2DView
100
AcDbLine
 10
22.1061
 20
-17.3442
 30
0
 11
21.899
 21
-18.1169
 31
0
  0
ARC
  5
BB6
330
A02
100
AcDbEntity
  8
Shape2DView
100
AcDbCircle
 10
20.0015
 20
-20.0145
 30
0
 40
3.4
100
AcDbArc
 50
51.7563
 51
128.244
  0
LINE
  5
BB7
330
A02
100
AcDbEntity
  8
Shape2DView
100
AcDbLine
 10
18.1039
 20
-18.1169
 30
0
 11
17.8968
 21
-17.3442
 31
0
  0
LINE
  5
BB8
330
A02
100
AcDbEntity
  8
Shape2DView
100
AcDbLine
 10
17.3311
 20
-17.9099
 30
0
 11
18.1039
 21
-18.1169
 31
0
  0
ARC
  5
BB9
330
A02
100
AcDbEntity
  8
Shape2DView
100
AcDbCircle
 10
20.0015
 20
-20.0145
 30
0
 40
3.4
100
AcDbArc
 50
141.756
 51
-141.756
  0
LINE
  5
BBA
330
A02
100
AcDbEntity
  8
Shape2DView
100
AcDbLine
 10
18.1039
 20
-21.9121
 30
0
 11
17.3311
 21
-22.1191
 31
0
  0
LINE
  5
BBB
330
A02
100
AcDbEntity
  8
Shape2DView
100
AcDbLine
 10
17.8968
 20
-22.6848
 30
0
 11
18.1039
 21
-21.9121
 31
0
  0
ARC
  5
BBC
330
A02
100
AcDbEntity
  8
Shape2DView
100
AcDbCircle
 10
60.0117
 20
-52.0383
 30
0
 40
3.4
100
AcDbArc
 50
-128.244
 51
-51.7563
  0
LINE
  5
BBD
330
A02
100
AcDbEntity
  8
Shape2DView
100
AcDbLine
 10
61.9093
 20
-53.9358
 30
0
 11
62.1163
 21
-54.7086
 31
0
  0
LINE
  5
BBE
330
A02
100
AcDbEntity
  8
Shape2DView
100
AcDbLine
 10
62.682
 20
-54.1429
 30
0
 11
61.9093
 21
-53.9358
 31
0
  0
ARC
  5
BBF
330
A02
100
AcDbEntity
  8
Shape2DView
100
AcDbCircle
 10
60.0117
 20
-52.0383
 30
0
 40
3.4
100
AcDbArc
 50
-38.2437
 51
38.2437
  0
LINE
  5
BC0
330
A02
100
AcDbEntity
  8
Shape2DView
100
AcDbLine
 10
61.9093
 20
-50.1407
 30
0
 11
62.682
 21
-49.9336
 31
0
  0
LINE
  5
BC1
330
A02
100
AcDbEntity
  8
Shape2DView
100
AcDbLine
 10
62.1163
 20
-49.368
 30
0
 11
61.9093
 21
-50.1407
 31
0
  0
ARC
  5
BC2
330
A02
100
AcDbEntity
  8
Shape2DView
100
AcDbCircle
 10
60.0117
 20
-52.0383
 30
0
 40
3.4
100
AcDbArc
 50
51.7563
 51
128.244
  0
LINE
  5
BC3
330
A02
100
AcDbEntity
  8
Shape2DView
100
AcDbLine
 10
58.1142
 20
-50.1407
 30
0
 11
57.9071
 21
-49.368
 31
0
  0
LINE
  5
BC4
330
A02
100
AcDbEntity
  8
Shape2DView
100
AcDbLine
 10
57.3414
 20
-49.9336
 30
0
 11
58.1142
 21
-50.1407
 31
0
  0
ARC
  5
BC5
330
A02
100
AcDbEntity
  8
Shape2DView
100
AcDbCircle
 10
60.0117
 20
-52.0383
 30
0
 40
3.4
100
AcDbArc
 50
141.756
 51
-141.756
  0
LINE
  5
BC6
330
A02
100
AcDbEntity
  8
Shape2DView
100
AcDbLine
 10
58.1142
 20
-53.9358
 30
0
 11
57.3414
 21
-54.1429
 31
0
  0
LINE
  5
BC7
330
A02
100
AcDbEntity
  8
Shape2DView
100
AcDbLine
 10
57.9071
 20
-54.7086
 30
0
 11
58.1142
 21
-53.9358
 31
0
  0
ARC
  5
BC8
330
A02
100
AcDbEntity
  8
Shape2DView
100
AcDbCircle
 10
52.0082
 20
-52.0364
 30
0
 40
3.4
100
AcDbArc
 50
-128.244
 51
-51.7563
  0
LINE
  5
BC9
330
A02
100
AcDbEntity
  8
Shape2DView
100
AcDbLine
 10
53.9057
 20
-53.9339
 30
0
 11
54.1128
 21
-54.7067
 31
0
  0
LINE
  5
BCA
330
A02
100
AcDbEntity
  8
Shape2DView
100
AcDbLine
 10
54.6785
 20
-54.141
 30
0
 11
53.9057
 21
-53.9339
 31
0
  0
ARC
  5
BCB
330
A02
100
AcDbEntity
  8
Shape2DView
100
AcDbCircle
 10
52.0082
 20
-52.0364
 30
0
 40
3.4
100
AcDbArc
 50
-38.2437
 51
38.2437
  0
LINE
  5
BCC
330
A02
100
AcDbEntity
  8
Shape2DView
100
AcDbLine
 10
53.9057
 20
-50.1388
 30
0
 11
54.6785
 21
-49.9317
 31
0
  0
LINE
  5
BCD
330
A02
100
AcDbEntity
  8
Shape2DView
100
AcDbLine
 10
54.1128
 20
-49.3661
 30
0
 11
53.9057
 21
-50.1388
 31
0
  0
ARC
  5
BCE
330
A02
100
AcDbEntity
  8
Shape2DView
100
AcDbCircle
 10
52.0082
 20
-52.0364
 30
0
 40
3.4
100
AcDbArc
 50
51.7563
 51
128.244
  0
LINE
  5
BCF
330
A02
100
AcDbEntity
  8
Shape2DView
100
AcDbLine
 10
50.1106
 20
-50.1388
 30
0
 11
49.9035
 21
-49.3661
 31
0
  0
LINE
  5
BD0
330
A02
100
AcDbEntity
  8
Shape2DView
100
AcDbLine
 10
49.3378
 20
-49.9317
 30
0
 11
50.1106
 21
-50.1388
 31
0
  0
ARC
  5
BD1
330
A02
100
AcDbEntity
  8
Shape2DView
100
AcDbCircle
 10
52.0082
 20
-52.0364
 30
0
 40
3.4
100
AcDbArc
 50
141.756
 51
-141.756
  0
LINE
  5
BD2
330
A02
100
AcDbEntity
  8
Shape2DView
100
AcDbLine
 10
50.1106
 20
-53.9339
 30
0
 11
49.3378
 21
-54.141
 31
0
  0
LINE
  5
BD3
330
A02
100
AcDbEntity
  8
Shape2DView
100
AcDbLine
 10
49.9035
 20
-54.7067
 30
0
 11
50.1106
 21
-53.9339
 31
0
  0
ARC
  5
BD4
330
A02
100
AcDbEntity
  8
Shape2DView
100
AcDbCircle
 10
44.0046
 20
-52.0345
 30
0
 40
3.4
100
AcDbArc
 50
-128.244
 51
-51.7563
  0
LINE
  5
BD5
330
A02
100
AcDbEntity
  8
Shape2DView
100
AcDbLine
 10
45.9022
 20
-53.932
 30
0
 11
46.1092
 21
-54.7048
 31
0
  0
LINE
  5
BD6
330
A02
100
AcDbEntity
  8
Shape2DView
100
AcDbLine
 10
46.6749
 20
-54.1391
 30
0
 11
45.9022
 21
-53.932
 31
0
  0
ARC
  5
BD7
330
A02
100
AcDbEntity
  8
Shape2DView
100
AcDbCircle
 10
44.0046
 20
-52.0345
 30
0
 40
3.4
100
AcDbArc
 50
-38.2437
 51
38.2437
  0
LINE
  5
BD8
330
A02
100
AcDbEntity
  8
Shape2DView
100
AcDbLine
 10
45.9022
 20
-50.1369
 30
0
 11
46.6749
 21
-49.9299
 31
0
  0
LINE
  5
BD9
330
A02
100
AcDbEntity
  8
Shape2DView
100
AcDbLine
 10
46.1092
 20
-49.3642
 30
0
 11
45.9022
 21
-50.1369
 31
0
  0
ARC
  5
BDA
330
A02
100
AcDbEntity
  8
Shape2DView
100
AcDbCircle
 10
44.0046
 20
-52.0345
 30
0
 40
3.4
100
AcDbArc
 50
51.7563
 51
128.244
  0
LINE
  5
BDB
330
A02
100
AcDbEntity
  8
Shape2DView
100
AcDbLine
 10
42.107
 20
-50.1369
 30
0
 11
41.9
 21
-49.3642
 31
0
  0
LINE
  5
BDC
330
A02
100
AcDbEntity
  8
Shape2DView
100
AcDbLine
 10
41.3343
 20
-49.9299
 30
0
 11
42.107
 21
-50.1369
 31
0
  0
ARC
  5
BDD
330
A02
100
AcDbEntity
  8
Shape2DView
100
AcDbCircle
 10
44.0046
 20
-52.0345
 30
0
 40
3.4
100
AcDbArc
 50
141.756
 51
-141.756
  0
LINE
  5
BDE
330
A02
100
AcDbEntity
  8
Shape2DView
100
AcDbLine
 10
42.107
 20
-53.932
 30
0
 11
41.3343
 21
-54.1391
 31
0
  0
LINE
  5
BDF
330
A02
100
AcDbEntity
  8
Shape2DView
100
AcDbLine
 10
41.9
 20
-54.7048
 30
0
 11
42.107
 21
-53.932
 31
0
  0
ARC
  5
BE0
330
A02
100
AcDbEntity
  8
Shape2DView
100
AcDbCircle
 10
36.001
 20
-52.0326
 30
0
 40
3.4
100
AcDbArc
 50
-128.244
 51
-51.7563
  0
LINE
  5
BE1
330
A02
100
AcDbEntity
  8
Shape2DView
100
AcDbLine
 10
37.8986
 20
-53.9302
 30
0
 11
38.1056
 21
-54.7029
 31
0
  0
LINE
  5
BE2
330
A02
100
AcDbEntity
  8
Shape2DView
100
AcDbLine
 10
38.6713
 20
-54.1372
 30
0
 11
37.8986
 21
-53.9302
 31
0
  0
ARC
  5
BE3
330
A02
100
AcDbEntity
  8
Shape2DView
100
AcDbCircle
 10
36.001
 20
-52.0326
 30
0
 40
3.4
100
AcDbArc
 50
-38.2437
 51
38.2437
  0
LINE
  5
BE4
330
A02
100
AcDbEntity
  8
Shape2DView
100
AcDbLine
 10
37.8986
 20
-50.135
 30
0
 11
38.6713
 21
-49.928
 31
0
  0
LINE
  5
BE5
330
A02
100
AcDbEntity
  8
Shape2DView
100
AcDbLine
 10
38.1056
 20
-49.3623
 30
0
 11
37.8986
 21
-50.135
 31
0
  0
ARC
  5
BE6
330
A02
100
AcDbEntity
  8
Shape2DView
100
AcDbCircle
 10
36.001
 20
-52.0326
 30
0
 40
3.4
100
AcDbArc
 50
51.7563
 51
128.244
  0
LINE
  5
BE7
330
A02
100
AcDbEntity
  8
Shape2DView
100
AcDbLine
 10
34.1034
 20
-50.135
 30
0
 11
33.8964
 21
-49.3623
 31
0
  0
LINE
  5
BE8
330
A02
100
AcDbEntity
  8
Shape2DView
100
AcDbLine
 10
33.3307
 20
-49.928
 30
0
 11
34.1034
 21
-50.135
 31
0
  0
ARC
  5
BE9
330
A02
100
AcDbEntity
  8
Shape2DView
100
AcDbCircle
 10
36.001
 20
-52.0326
 30
0
 40
3.4
100
AcDbArc
 50
141.756
 51
-141.756
  0
LINE
  5
BEA
330
A02
100
AcDbEntity
  8
Shape2DView
100
AcDbLine
 10
34.1034
 20
-53.9302
 30
0
 11
33.3307
 21
-54.1372
 31
0
  0
LINE
  5
BEB
330
A02
100
AcDbEntity
  8
Shape2DView
100
AcDbLine
 10
33.8964
 20
-54.7029
 30
0
 11
34.1034
 21
-53.9302
 31
0
  0
ARC
  5
BEC
330
A02
100
AcDbEntity
  8
Shape2DView
100
AcDbCircle
 10
27.9974
 20
-52.0307
 30
0
 40
3.4
100
AcDbArc
 50
-128.244
 51
-51.7563
  0
LINE
  5
BED
330
A02
100
AcDbEntity
  8
Shape2DView
100
AcDbLine
 10
29.895
 20
-53.9283
 30
0
 11
30.1021
 21
-54.701
 31
0
  0
LINE
  5
BEE
330
A02
100
AcDbEntity
  8
Shape2DView
100
AcDbLine
 10
30.6678
 20
-54.1353
 30
0
 11
29.895
 21
-53.9283
 31
0
  0
ARC
  5
BEF
330
A02
100
AcDbEntity
  8
Shape2DView
100
AcDbCircle
 10
27.9974
 20
-52.0307
 30
0
 40
3.4
100
AcDbArc
 50
-38.2437
 51
38.2437
  0
LINE
  5
BF0
330
A02
100
AcDbEntity
  8
Shape2DView
100
AcDbLine
 10
29.895
 20
-50.1331
 30
0
 11
30.6678
 21
-49.9261
 31
0
  0
LINE
  5
BF1
330
A02
100
AcDbEntity
  8
Shape2DView
100
AcDbLine
 10
30.1021
 20
-49.3604
 30
0
 11
29.895
 21
-50.1331
 31
0
  0
ARC
  5
BF2
330
A02
100
AcDbEntity
  8
Shape2DView
100
AcDbCircle
 10
27.9974
 20
-52.0307
 30
0
 40
3.4
100
AcDbArc
 50
51.7563
 51
128.244
  0
LINE
  5
BF3
330
A02
100
AcDbEntity
  8
Shape2DView
100
AcDbLine
 10
26.0999
 20
-50.1331
 30
0
 11
25.8928
 21
-49.3604
 31
0
  0
LINE
  5
BF4
330
A02
100
AcDbEntity
  8
Shape2DView
100
AcDbLine
 10
25.3271
 20
-49.9261
 30
0
 11
26.0999
 21
-50.1331
 31
0
  0
ARC
  5
BF5
330
A02
100
AcDbEntity
  8
Shape2DView
100
AcDbCircle
 10
27.9974
 20
-52.0307
 30
0
 40
3.4
100
AcDbArc
 50
141.756
 51
-141.756
  0
LINE
  5
BF6
330
A02
100
AcDbEntity
  8
Shape2DView
100
AcDbLine
 10
26.0999
 20
-53.9283
 30
0
 11
25.3271
 21
-54.1353
 31
0
  0
LINE
  5
BF7
330
A02
100
AcDbEntity
  8
Shape2DView
100
AcDbLine
 10
25.8928
 20
-54.701
 30
0
 11
26.0999
 21
-53.9283
 31
0
  0
ARC
  5
BF8
330
A02
100
AcDbEntity
  8
Shape2DView
100
AcDbCircle
 10
19.9939
 20
-52.0288
 30
0
 40
3.4
100
AcDbArc
 50
-128.244
 51
-51.7563
  0
LINE
  5
BF9
330
A02
100
AcDbEntity
  8
Shape2DView
100
AcDbLine
 10
21.8914
 20
-53.9264
 30
0
 11
22.0985
 21
-54.6991
 31
0
  0
LINE
  5
BFA
330
A02
100
AcDbEntity
  8
Shape2DView
100
AcDbLine
 10
22.6642
 20
-54.1334
 30
0
 11
21.8914
 21
-53.9264
 31
0
  0
ARC
  5
BFB
330
A02
100
AcDbEntity
  8
Shape2DView
100
AcDbCircle
 10
19.9939
 20
-52.0288
 30
0
 40
3.4
100
AcDbArc
 50
-38.2437
 51
38.2437
  0
LINE
  5
BFC
330
A02
100
AcDbEntity
  8
Shape2DView
100
AcDbLine
 10
21.8914
 20
-50.1312
 30
0
 11
22.6642
 21
-49.9242
 31
0
  0
LINE
  5
BFD
330
A02
100
AcDbEntity
  8
Shape2DView
100
AcDbLine
 10
22.0985
 20
-49.3585
 30
0
 11
21.8914
 21
-50.1312
 31
0
  0
ARC
  5
BFE
330
A02
100
AcDbEntity
  8
Shape2DView
100
AcDbCircle
 10
19.9939
 20
-52.0288
 30
0
 40
3.4
100
AcDbArc
 50
51.7563
 51
128.244
  0
LINE
  5
BFF
330
A02
100
AcDbEntity
  8
Shape2DView
100
AcDbLine
 10
18.0963
 20
-50.1312
 30
0
 11
17.8892
 21
-49.3585
 31
0
  0
LINE
  5
C00
330
A02
100
AcDbEntity
  8
Shape2DView
100
AcDbLine
 10
17.3236
 20
-49.9242
 30
0
 11
18.0963
 21
-50.1312
 31
0
  0
ARC
  5
C01
330
A02
100
AcDbEntity
  8
Shape2DView
100
AcDbCircle
 10
19.9939
 20
-52.0288
 30
0
 40
3.4
100
AcDbArc
 50
141.756
 51
-141.756
  0
LINE
  5
C02
330
A02
100
AcDbEntity
  8
Shape2DView
100
AcDbLine
 10
18.0963
 20
-53.9264
 30
0
 11
17.3236
 21
-54.1334
 31
0
  0
LINE
  5
C03
330
A02
100
AcDbEntity
  8
Shape2DView
100
AcDbLine
 10
17.8892
 20
-54.6991
 30
0
 11
18.0963
 21
-53.9264
 31
0
  0
ARC
  5
C04
330
A02
100
AcDbEntity
  8
Shape2DView
100
AcDbCircle
 10
60.0136
 20
-44.0347
 30
0
 40
3.4
100
AcDbArc
 50
-128.244
 51
-51.7563
  0
LINE
  5
C05
330
A02
100
AcDbEntity
  8
Shape2DView
100
AcDbLine
 10
61.9112
 20
-45.9323
 30
0
 11
62.1182
 21
-46.705
 31
0
  0
LINE
  5
C06
330
A02
100
AcDbEntity
  8
Shape2DView
100
AcDbLine
 10
62.6839
 20
-46.1393
 30
0
 11
61.9112
 21
-45.9323
 31
0
  0
ARC
  5
C07
330
A02
100
AcDbEntity
  8
Shape2DView
100
AcDbCircle
 10
60.0136
 20
-44.0347
 30
0
 40
3.4
100
AcDbArc
 50
-38.2437
 51
38.2437
  0
LINE
  5
C08
330
A02
100
AcDbEntity
  8
Shape2DView
100
AcDbLine
 10
61.9112
 20
-42.1371
 30
0
 11
62.6839
 21
-41.9301
 31
0
  0
LINE
  5
C09
330
A02
100
AcDbEntity
  8
Shape2DView
100
AcDbLine
 10
62.1182
 20
-41.3644
 30
0
 11
61.9112
 21
-42.1371
 31
0
  0
ARC
  5
C0A
330
A02
100
AcDbEntity
  8
Shape2DView
100
AcDbCircle
 10
60.0136
 20
-44.0347
 30
0
 40
3.4
100
AcDbArc
 50
51.7563
 51
128.244
  0
LINE
  5
C0B
330
A02
100
AcDbEntity
  8
Shape2DView
100
AcDbLine
 10
58.1161
 20
-42.1371
 30
0
 11
57.909
 21
-41.3644
 31
0
  0
LINE
  5
C0C
330
A02
100
AcDbEntity
  8
Shape2DView
100
AcDbLine
 10
57.3433
 20
-41.9301
 30
0
 11
58.1161
 21
-42.1371
 31
0
  0
ARC
  5
C0D
330
A02
100
AcDbEntity
  8
Shape2DView
100
AcDbCircle
 10
60.0136
 20
-44.0347
 30
0
 40
3.4
100
AcDbArc
 50
141.756
 51
-141.756
  0
LINE
  5
C0E
330
A02
100
AcDbEntity
  8
Shape2DView
100
AcDbLine
 10
58.1161
 20
-45.9323
 30
0
 11
57.3433
 21
-46.1393
 31
0
  0
LINE
  5
C0F
330
A02
100
AcDbEntity
  8
Shape2DView
100
AcDbLine
 10
57.909
 20
-46.705
 30
0
 11
58.1161
 21
-45.9323
 31
0
  0
ARC
  5
C10
330
A02
100
AcDbEntity
  8
Shape2DView
100
AcDbCircle
 10
52.0101
 20
-44.0328
 30
0
 40
3.4
100
AcDbArc
 50
-128.244
 51
-51.7563
  0
LINE
  5
C11
330
A02
100
AcDbEntity
  8
Shape2DView
100
AcDbLine
 10
53.9076
 20
-45.9304
 30
0
 11
54.1147
 21
-46.7031
 31
0
  0
LINE
  5
C12
330
A02
100
AcDbEntity
  8
Shape2DView
100
AcDbLine
 10
54.6804
 20
-46.1374
 30
0
 11
53.9076
 21
-45.9304
 31
0
  0
ARC
  5
C13
330
A02
100
AcDbEntity
  8
Shape2DView
100
AcDbCircle
 10
52.0101
 20
-44.0328
 30
0
 40
3.4
100
AcDbArc
 50
-38.2437
 51
38.2437
  0
LINE
  5
C14
330
A02
100
AcDbEntity
  8
Shape2DView
100
AcDbLine
 10
53.9076
 20
-42.1352
 30
0
 11
54.6804
 21
-41.9282
 31
0
  0
LINE
  5
C15
330
A02
100
AcDbEntity
  8
Shape2DView
100
AcDbLine
 10
54.1147
 20
-41.3625
 30
0
 11
53.9076
 21
-42.1352
 31
0
  0
ARC
  5
C16
330
A02
100
AcDbEntity
  8
Shape2DView
100
AcDbCircle
 10
52.0101
 20
-44.0328
 30
0
 40
3.4
100
AcDbArc
 50
51.7563
 51
128.244
  0
LINE
  5
C17
330
A02
100
AcDbEntity
  8
Shape2DView
100
AcDbLine
 10
50.1125
 20
-42.1352
 30
0
 11
49.9054
 21
-41.3625
 31
0
  0
LINE
  5
C18
330
A02
100
AcDbEntity
  8
Shape2DView
100
AcDbLine
 10
49.3397
 20
-41.9282
 30
0
 11
50.1125
 21
-42.1352
 31
0
  0
ARC
  5
C19
330
A02
100
AcDbEntity
  8
Shape2DView
100
AcDbCircle
 10
52.0101
 20
-44.0328
 30
0
 40
3.4
100
AcDbArc
 50
141.756
 51
-141.756
  0
LINE
  5
C1A
330
A02
100
AcDbEntity
  8
Shape2DView
100
AcDbLine
 10
50.1125
 20
-45.9304
 30
0
 11
49.3397
 21
-46.1374
 31
0
  0
LINE
  5
C1B
330
A02
100
AcDbEntity
  8
Shape2DView
100
AcDbLine
 10
49.9054
 20
-46.7031
 30
0
 11
50.1125
 21
-45.9304
 31
0
  0
ARC
  5
C1C
330
A02
100
AcDbEntity
  8
Shape2DView
100
AcDbCircle
 10
44.0065
 20
-44.0309
 30
0
 40
3.4
100
AcDbArc
 50
-128.244
 51
-51.7563
  0
LINE
  5
C1D
330
A02
100
AcDbEntity
  8
Shape2DView
100
AcDbLine
 10
45.904
 20
-45.9285
 30
0
 11
46.1111
 21
-46.7012
 31
0
  0
LINE
  5
C1E
330
A02
100
AcDbEntity
  8
Shape2DView
100
AcDbLine
 10
46.6768
 20
-46.1355
 30
0
 11
45.904
 21
-45.9285
 31
0
  0
ARC
  5
C1F
330
A02
100
AcDbEntity
  8
Shape2DView
100
AcDbCircle
 10
44.0065
 20
-44.0309
 30
0
 40
3.4
100
AcDbArc
 50
-38.2437
 51
38.2437
  0
LINE
  5
C20
330
A02
100
AcDbEntity
  8
Shape2DView
100
AcDbLine
 10
45.904
 20
-42.1333
 30
0
 11
46.6768
 21
-41.9263
 31
0
  0
LINE
  5
C21
330
A02
100
AcDbEntity
  8
Shape2DView
100
AcDbLine
 10
46.1111
 20
-41.3606
 30
0
 11
45.904
 21
-42.1333
 31
0
  0
ARC
  5
C22
330
A02
100
AcDbEntity
  8
Shape2DView
100
AcDbCircle
 10
44.0065
 20
-44.0309
 30
0
 40
3.4
100
AcDbArc
 50
51.7563
 51
128.244
  0
LINE
  5
C23
330
A02
100
AcDbEntity
  8
Shape2DView
100
AcDbLine
 10
42.1089
 20
-42.1333
 30
0
 11
41.9019
 21
-41.3606
 31
0
  0
LINE
  5
C24
330
A02
100
AcDbEntity
  8
Shape2DView
100
AcDbLine
 10
41.3362
 20
-41.9263
 30
0
 11
42.1089
 21
-42.1333
 31
0
  0
ARC
  5
C25
330
A02
100
AcDbEntity
  8
Shape2DView
100
AcDbCircle
 10
44.0065
 20
-44.0309
 30
0
 40
3.4
100
AcDbArc
 50
141.756
 51
-141.756
  0
LINE
  5
C26
330
A02
100
AcDbEntity
  8
Shape2DView
100
AcDbLine
 10
42.1089
 20
-45.9285
 30
0
 11
41.3362
 21
-46.1355
 31
0
  0
LINE
  5
C27
330
A02
100
AcDbEntity
  8
Shape2DView
100
AcDbLine
 10
41.9019
 20
-46.7012
 30
0
 11
42.1089
 21
-45.9285
 31
0
  0
ARC
  5
C28
330
A02
100
AcDbEntity
  8
Shape2DView
100
AcDbCircle
 10
36.0029
 20
-44.029
 30
0
 40
3.4
100
AcDbArc
 50
-128.244
 51
-51.7563
  0
LINE
  5
C29
330
A02
100
AcDbEntity
  8
Shape2DView
100
AcDbLine
 10
37.9005
 20
-45.9266
 30
0
 11
38.1075
 21
-46.6993
 31
0
  0
LINE
  5
C2A
330
A02
100
AcDbEntity
  8
Shape2DView
100
AcDbLine
 10
38.6732
 20
-46.1336
 30
0
 11
37.9005
 21
-45.9266
 31
0
  0
ARC
  5
C2B
330
A02
100
AcDbEntity
  8
Shape2DView
100
AcDbCircle
 10
36.0029
 20
-44.029
 30
0
 40
3.4
100
AcDbArc
 50
-38.2437
 51
38.2437
  0
LINE
  5
C2C
330
A02
100
AcDbEntity
  8
Shape2DView
100
AcDbLine
 10
37.9005
 20
-42.1314
 30
0
 11
38.6732
 21
-41.9244
 31
0
  0
LINE
  5
C2D
330
A02
100
AcDbEntity
  8
Shape2DView
100
AcDbLine
 10
38.1075
 20
-41.3587
 30
0
 11
37.9005
 21
-42.1314
 31
0
  0
ARC
  5
C2E
330
A02
100
AcDbEntity
  8
Shape2DView
100
AcDbCircle
 10
36.0029
 20
-44.029
 30
0
 40
3.4
100
AcDbArc
 50
51.7563
 51
128.244
  0
LINE
  5
C2F
330
A02
100
AcDbEntity
  8
Shape2DView
100
AcDbLine
 10
34.1053
 20
-42.1314
 30
0
 11
33.8983
 21
-41.3587
 31
0
  0
LINE
  5
C30
330
A02
100
AcDbEntity
  8
Shape2DView
100
AcDbLine
 10
33.3326
 20
-41.9244
 30
0
 11
34.1053
 21
-42.1314
 31
0
  0
ARC
  5
C31
330
A02
100
AcDbEntity
  8
Shape2DView
100
AcDbCircle
 10
36.0029
 20
-44.029
 30
0
 40
3.4
100
AcDbArc
 50
141.756
 51
-141.756
  0
LINE
  5
C32
330
A02
100
AcDbEntity
  8
Shape2DView
100
AcDbLine
 10
34.1053
 20
-45.9266
 30
0
 11
33.3326
 21
-46.1336
 31
0
  0
LINE
  5
C33
330
A02
100
AcDbEntity
  8
Shape2DView
100
AcDbLine
 10
33.8983
 20
-46.6993
 30
0
 11
34.1053
 21
-45.9266
 31
0
  0
ARC
  5
C34
330
A02
100
AcDbEntity
  8
Shape2DView
100
AcDbCircle
 10
27.9993
 20
-44.0271
 30
0
 40
3.4
100
AcDbArc
 50
-128.244
 51
-51.7563
  0
LINE
  5
C35
330
A02
100
AcDbEntity
  8
Shape2DView
100
AcDbLine
 10
29.8969
 20
-45.9247
 30
0
 11
30.104
 21
-46.6974
 31
0
  0
LINE
  5
C36
330
A02
100
AcDbEntity
  8
Shape2DView
100
AcDbLine
 10
30.6696
 20
-46.1317
 30
0
 11
29.8969
 21
-45.9247
 31
0
  0
ARC
  5
C37
330
A02
100
AcDbEntity
  8
Shape2DView
100
AcDbCircle
 10
27.9993
 20
-44.0271
 30
0
 40
3.4
100
AcDbArc
 50
-38.2437
 51
38.2437
  0
LINE
  5
C38
330
A02
100
AcDbEntity
  8
Shape2DView
100
AcDbLine
 10
29.8969
 20
-42.1295
 30
0
 11
30.6696
 21
-41.9225
 31
0
  0
LINE
  5
C39
330
A02
100
AcDbEntity
  8
Shape2DView
100
AcDbLine
 10
30.104
 20
-41.3568
 30
0
 11
29.8969
 21
-42.1295
 31
0
  0
ARC
  5
C3A
330
A02
100
AcDbEntity
  8
Shape2DView
100
AcDbCircle
 10
27.9993
 20
-44.0271
 30
0
 40
3.4
100
AcDbArc
 50
51.7563
 51
128.244
  0
LINE
  5
C3B
330
A02
100
AcDbEntity
  8
Shape2DView
100
AcDbLine
 10
26.1018
 20
-42.1295
 30
0
 11
25.8947
 21
-41.3568
 31
0
  0
LINE
  5
C3C
330
A02
100
AcDbEntity
  8
Shape2DView
100
AcDbLine
 10
25.329
 20
-41.9225
 30
0
 11
26.1018
 21
-42.1295
 31
0
  0
ARC
  5
C3D
330
A02
100
AcDbEntity
  8
Shape2DView
100
AcDbCircle
 10
27.9993
 20
-44.0271
 30
0
 40
3.4
100
AcDbArc
 50
141.756
 51
-141.756
  0
LINE
  5
C3E
330
A02
100
AcDbEntity
  8
Shape2DView
100
AcDbLine
 10
26.1018
 20
-45.9247
 30
0
 11
25.329
 21
-46.1317
 31
0
  0
LINE
  5
C3F
330
A02
100
AcDbEntity
  8
Shape2DView
100
AcDbLine
 10
25.8947
 20
-46.6974
 30
0
 11
26.1018
 21
-45.9247
 31
0
  0
ARC
  5
C40
330
A02
100
AcDbEntity
  8
Shape2DView
100
AcDbCircle
 10
19.9958
 20
-44.0252
 30
0
 40
3.4
100
AcDbArc
 50
-128.244
 51
-51.7563
  0
LINE
  5
C41
330
A02
100
AcDbEntity
  8
Shape2DView
100
AcDbLine
 10
21.8933
 20
-45.9228
 30
0
 11
22.1004
 21
-46.6955
 31
0
  0
LINE
  5
C42
330
A02
100
AcDbEntity
  8
Shape2DView
100
AcDbLine
 10
22.6661
 20
-46.1298
 30
0
 11
21.8933
 21
-45.9228
 31
0
  0
ARC
  5
C43
330
A02
100
AcDbEntity
  8
Shape2DView
100
AcDbCircle
 10
19.9958
 20
-44.0252
 30
0
 40
3.4
100
AcDbArc
 50
-38.2437
 51
38.2437
  0
LINE
  5
C44
330
A02
100
AcDbEntity
  8
Shape2DView
100
AcDbLine
 10
21.8933
 20
-42.1276
 30
0
 11
22.6661
 21
-41.9206
 31
0
  0
LINE
  5
C45
330
A02
100
AcDbEntity
  8
Shape2DView
100
AcDbLine
 10
22.1004
 20
-41.3549
 30
0
 11
21.8933
 21
-42.1276
 31
0
  0
ARC
  5
C46
330
A02
100
AcDbEntity
  8
Shape2DView
100
AcDbCircle
 10
19.9958
 20
-44.0252
 30
0
 40
3.4
100
AcDbArc
 50
51.7563
 51
128.244
  0
LINE
  5
C47
330
A02
100
AcDbEntity
  8
Shape2DView
100
AcDbLine
 10
18.0982
 20
-42.1276
 30
0
 11
17.8911
 21
-41.3549
 31
0
  0
LINE
  5
C48
330
A02
100
AcDbEntity
  8
Shape2DView
100
AcDbLine
 10
17.3255
 20
-41.9206
 30
0
 11
18.0982
 21
-42.1276
 31
0
  0
ARC
  5
C49
330
A02
100
AcDbEntity
  8
Shape2DView
100
AcDbCircle
 10
19.9958
 20
-44.0252
 30
0
 40
3.4
100
AcDbArc
 50
141.756
 51
-141.756
  0
LINE
  5
C4A
330
A02
100
AcDbEntity
  8
Shape2DView
100
AcDbLine
 10
18.0982
 20
-45.9228
 30
0
 11
17.3255
 21
-46.1298
 31
0
  0
LINE
  5
C4B
330
A02
100
AcDbEntity
  8
Shape2DView
100
AcDbLine
 10
17.8911
 20
-46.6955
 30
0
 11
18.0982
 21
-45.9228
 31
0
  0
ARC
  5
C4C
330
A02
100
AcDbEntity
  8
Shape2DView
100
AcDbCircle
 10
60.0155
 20
-36.0311
 30
0
 40
3.4
100
AcDbArc
 50
-128.244
 51
-51.7563
  0
LINE
  5
C4D
330
A02
100
AcDbEntity
  8
Shape2DView
100
AcDbLine
 10
61.9131
 20
-37.9287
 30
0
 11
62.1201
 21
-38.7014
 31
0
  0
LINE
  5
C4E
330
A02
100
AcDbEntity
  8
Shape2DView
100
AcDbLine
 10
62.6858
 20
-38.1358
 30
0
 11
61.9131
 21
-37.9287
 31
0
  0
ARC
  5
C4F
330
A02
100
AcDbEntity
  8
Shape2DView
100
AcDbCircle
 10
60.0155
 20
-36.0311
 30
0
 40
3.4
100
AcDbArc
 50
-38.2437
 51
38.2437
  0
LINE
  5
C50
330
A02
100
AcDbEntity
  8
Shape2DView
100
AcDbLine
 10
61.9131
 20
-34.1336
 30
0
 11
62.6858
 21
-33.9265
 31
0
  0
LINE
  5
C51
330
A02
100
AcDbEntity
  8
Shape2DView
100
AcDbLine
 10
62.1201
 20
-33.3608
 30
0
 11
61.9131
 21
-34.1336
 31
0
  0
ARC
  5
C52
330
A02
100
AcDbEntity
  8
Shape2DView
100
AcDbCircle
 10
60.0155
 20
-36.0311
 30
0
 40
3.4
100
AcDbArc
 50
51.7563
 51
128.244
  0
LINE
  5
C53
330
A02
100
AcDbEntity
  8
Shape2DView
100
AcDbLine
 10
58.1179
 20
-34.1336
 30
0
 11
57.9109
 21
-33.3608
 31
0
  0
LINE
  5
C54
330
A02
100
AcDbEntity
  8
Shape2DView
100
AcDbLine
 10
57.3452
 20
-33.9265
 30
0
 11
58.1179
 21
-34.1336
 31
0
  0
ARC
  5
C55
330
A02
100
AcDbEntity
  8
Shape2DView
100
AcDbCircle
 10
60.0155
 20
-36.0311
 30
0
 40
3.4
100
AcDbArc
 50
141.756
 51
-141.756
  0
LINE
  5
C56
330
A02
100
AcDbEntity
  8
Shape2DView
100
AcDbLine
 10
58.1179
 20
-37.9287
 30
0
 11
57.3452
 21
-38.1358
 31
0
  0
LINE
  5
C57
330
A02
100
AcDbEntity
  8
Shape2DView
100
AcDbLine
 10
57.9109
 20
-38.7014
 30
0
 11
58.1179
 21
-37.9287
 31
0
  0
ARC
  5
C58
330
A02
100
AcDbEntity
  8
Shape2DView
100
AcDbCircle
 10
60.0193
 20
-20.024
 30
0
 40
3.4
100
AcDbArc
 50
-128.244
 51
-51.7563
  0
LINE
  5
C59
330
A02
100
AcDbEntity
  8
Shape2DView
100
AcDbLine
 10
61.9169
 20
-21.9216
 30
0
 11
62.1239
 21
-22.6943
 31
0
  0
LINE
  5
C5A
330
A02
100
AcDbEntity
  8
Shape2DView
100
AcDbLine
 10
62.6896
 20
-22.1286
 30
0
 11
61.9169
 21
-21.9216
 31
0
  0
ARC
  5
C5B
330
A02
100
AcDbEntity
  8
Shape2DView
100
AcDbCircle
 10
60.0193
 20
-20.024
 30
0
 40
3.4
100
AcDbArc
 50
-38.2437
 51
38.2437
  0
LINE
  5
C5C
330
A02
100
AcDbEntity
  8
Shape2DView
100
AcDbLine
 10
61.9169
 20
-18.1264
 30
0
 11
62.6896
 21
-17.9194
 31
0
  0
LINE
  5
C5D
330
A02
100
AcDbEntity
  8
Shape2DView
100
AcDbLine
 10
62.1239
 20
-17.3537
 30
0
 11
61.9169
 21
-18.1264
 31
0
  0
ARC
  5
C5E
330
A02
100
AcDbEntity
  8
Shape2DView
100
AcDbCircle
 10
60.0193
 20
-20.024
 30
0
 40
3.4
100
AcDbArc
 50
51.7563
 51
128.244
  0
LINE
  5
C5F
330
A02
100
AcDbEntity
  8
Shape2DView
100
AcDbLine
 10
58.1217
 20
-18.1264
 30
0
 11
57.9147
 21
-17.3537
 31
0
  0
LINE
  5
C60
330
A02
100
AcDbEntity
  8
Shape2DView
100
AcDbLine
 10
57.349
 20
-17.9194
 30
0
 11
58.1217
 21
-18.1264
 31
0
  0
ARC
  5
C61
330
A02
100
AcDbEntity
  8
Shape2DView
100
AcDbCircle
 10
60.0193
 20
-20.024
 30
0
 40
3.4
100
AcDbArc
 50
141.756
 51
-141.756
  0
LINE
  5
C62
330
A02
100
AcDbEntity
  8
Shape2DView
100
AcDbLine
 10
58.1217
 20
-21.9216
 30
0
 11
57.349
 21
-22.1286
 31
0
  0
LINE
  5
C63
330
A02
100
AcDbEntity
  8
Shape2DView
100
AcDbLine
 10
57.9147
 20
-22.6943
 30
0
 11
58.1217
 21
-21.9216
 31
0
  0
ARC
  5
C64
330
A02
100
AcDbEntity
  8
Shape2DView
100
AcDbCircle
 10
44.0084
 20
-36.0273
 30
0
 40
3.4
100
AcDbArc
 50
-128.244
 51
-51.7563
  0
LINE
  5
C65
330
A02
100
AcDbEntity
  8
Shape2DView
100
AcDbLine
 10
45.9059
 20
-37.9249
 30
0
 11
46.113
 21
-38.6976
 31
0
  0
LINE
  5
C66
330
A02
100
AcDbEntity
  8
Shape2DView
100
AcDbLine
 10
46.6787
 20
-38.132
 30
0
 11
45.9059
 21
-37.9249
 31
0
  0
ARC
  5
C67
330
A02
100
AcDbEntity
  8
Shape2DView
100
AcDbCircle
 10
44.0084
 20
-36.0273
 30
0
 40
3.4
100
AcDbArc
 50
-38.2437
 51
38.2437
  0
LINE
  5
C68
330
A02
100
AcDbEntity
  8
Shape2DView
100
AcDbLine
 10
45.9059
 20
-34.1298
 30
0
 11
46.6787
 21
-33.9227
 31
0
  0
LINE
  5
C69
330
A02
100
AcDbEntity
  8
Shape2DView
100
AcDbLine
 10
46.113
 20
-33.357
 30
0
 11
45.9059
 21
-34.1298
 31
0
  0
ARC
  5
C6A
330
A02
100
AcDbEntity
  8
Shape2DView
100
AcDbCircle
 10
44.0084
 20
-36.0273
 30
0
 40
3.4
100
AcDbArc
 50
51.7563
 51
128.244
  0
LINE
  5
C6B
330
A02
100
AcDbEntity
  8
Shape2DView
100
AcDbLine
 10
42.1108
 20
-34.1298
 30
0
 11
41.9038
 21
-33.357
 31
0
  0
LINE
  5
C6C
330
A02
100
AcDbEntity
  8
Shape2DView
100
AcDbLine
 10
41.3381
 20
-33.9227
 30
0
 11
42.1108
 21
-34.1298
 31
0
  0
ARC
  5
C6D
330
A02
100
AcDbEntity
  8
Shape2DView
100
AcDbCircle
 10
44.0084
 20
-36.0273
 30
0
 40
3.4
100
AcDbArc
 50
141.756
 51
-141.756
  0
LINE
  5
C6E
330
A02
100
AcDbEntity
  8
Shape2DView
100
AcDbLine
 10
42.1108
 20
-37.9249
 30
0
 11
41.3381
 21
-38.132
 31
0
  0
LINE
  5
C6F
330
A02
100
AcDbEntity
  8
Shape2DView
100
AcDbLine
 10
41.9038
 20
-38.6976
 30
0
 11
42.1108
 21
-37.9249
 31
0
  0
ARC
  5
C70
330
A02
100
AcDbEntity
  8
Shape2DView
100
AcDbCircle
 10
36.0048
 20
-36.0254
 30
0
 40
3.4
100
AcDbArc
 50
-128.244
 51
-51.7563
  0
LINE
  5
C71
330
A02
100
AcDbEntity
  8
Shape2DView
100
AcDbLine
 10
37.9024
 20
-37.923
 30
0
 11
38.1094
 21
-38.6957
 31
0
  0
LINE
  5
C72
330
A02
100
AcDbEntity
  8
Shape2DView
100
AcDbLine
 10
38.6751
 20
-38.1301
 30
0
 11
37.9024
 21
-37.923
 31
0
  0
ARC
  5
C73
330
A02
100
AcDbEntity
  8
Shape2DView
100
AcDbCircle
 10
36.0048
 20
-36.0254
 30
0
 40
3.4
100
AcDbArc
 50
-38.2437
 51
38.2437
  0
LINE
  5
C74
330
A02
100
AcDbEntity
  8
Shape2DView
100
AcDbLine
 10
37.9024
 20
-34.1279
 30
0
 11
38.6751
 21
-33.9208
 31
0
  0
LINE
  5
C75
330
A02
100
AcDbEntity
  8
Shape2DView
100
AcDbLine
 10
38.1094
 20
-33.3551
 30
0
 11
37.9024
 21
-34.1279
 31
0
  0
ARC
  5
C76
330
A02
100
AcDbEntity
  8
Shape2DView
100
AcDbCircle
 10
36.0048
 20
-36.0254
 30
0
 40
3.4
100
AcDbArc
 50
51.7563
 51
128.244
  0
LINE
  5
C77
330
A02
100
AcDbEntity
  8
Shape2DView
100
AcDbLine
 10
34.1072
 20
-34.1279
 30
0
 11
33.9002
 21
-33.3551
 31
0
  0
LINE
  5
C78
330
A02
100
AcDbEntity
  8
Shape2DView
100
AcDbLine
 10
33.3345
 20
-33.9208
 30
0
 11
34.1072
 21
-34.1279
 31
0
  0
ARC
  5
C79
330
A02
100
AcDbEntity
  8
Shape2DView
100
AcDbCircle
 10
36.0048
 20
-36.0254
 30
0
 40
3.4
100
AcDbArc
 50
141.756
 51
-141.756
  0
LINE
  5
C7A
330
A02
100
AcDbEntity
  8
Shape2DView
100
AcDbLine
 10
34.1072
 20
-37.923
 30
0
 11
33.3345
 21
-38.1301
 31
0
  0
LINE
  5
C7B
330
A02
100
AcDbEntity
  8
Shape2DView
100
AcDbLine
 10
33.9002
 20
-38.6957
 30
0
 11
34.1072
 21
-37.923
 31
0
  0
ARC
  5
C7C
330
A02
100
AcDbEntity
  8
Shape2DView
100
AcDbCircle
 10
28.0012
 20
-36.0235
 30
0
 40
3.4
100
AcDbArc
 50
-128.244
 51
-51.7563
  0
LINE
  5
C7D
330
A02
100
AcDbEntity
  8
Shape2DView
100
AcDbLine
 10
29.8988
 20
-37.9211
 30
0
 11
30.1059
 21
-38.6939
 31
0
  0
LINE
  5
C7E
330
A02
100
AcDbEntity
  8
Shape2DView
100
AcDbLine
 10
30.6715
 20
-38.1282
 30
0
 11
29.8988
 21
-37.9211
 31
0
  0
ARC
  5
C7F
330
A02
100
AcDbEntity
  8
Shape2DView
100
AcDbCircle
 10
28.0012
 20
-36.0235
 30
0
 40
3.4
100
AcDbArc
 50
-38.2437
 51
38.2437
  0
LINE
  5
C80
330
A02
100
AcDbEntity
  8
Shape2DView
100
AcDbLine
 10
29.8988
 20
-34.126
 30
0
 11
30.6715
 21
-33.9189
 31
0
  0
LINE
  5
C81
330
A02
100
AcDbEntity
  8
Shape2DView
100
AcDbLine
 10
30.1059
 20
-33.3532
 30
0
 11
29.8988
 21
-34.126
 31
0
  0
ARC
  5
C82
330
A02
100
AcDbEntity
  8
Shape2DView
100
AcDbCircle
 10
28.0012
 20
-36.0235
 30
0
 40
3.4
100
AcDbArc
 50
51.7563
 51
128.244
  0
LINE
  5
C83
330
A02
100
AcDbEntity
  8
Shape2DView
100
AcDbLine
 10
26.1037
 20
-34.126
 30
0
 11
25.8966
 21
-33.3532
 31
0
  0
LINE
  5
C84
330
A02
100
AcDbEntity
  8
Shape2DView
100
AcDbLine
 10
25.3309
 20
-33.9189
 30
0
 11
26.1037
 21
-34.126
 31
0
  0
ARC
  5
C85
330
A02
100
AcDbEntity
  8
Shape2DView
100
AcDbCircle
 10
28.0012
 20
-36.0235
 30
0
 40
3.4
100
AcDbArc
 50
141.756
 51
-141.756
  0
LINE
  5
C86
330
A02
100
AcDbEntity
  8
Shape2DView
100
AcDbLine
 10
26.1037
 20
-37.9211
 30
0
 11
25.3309
 21
-38.1282
 31
0
  0
LINE
  5
C87
330
A02
100
AcDbEntity
  8
Shape2DView
100
AcDbLine
 10
25.8966
 20
-38.6939
 30
0
 11
26.1037
 21
-37.9211
 31
0
  0
ARC
  5
C88
330
A02
100
AcDbEntity
  8
Shape2DView
100
AcDbCircle
 10
19.9977
 20
-36.0216
 30
0
 40
3.4
100
AcDbArc
 50
-128.244
 51
-51.7563
  0
LINE
  5
C89
330
A02
100
AcDbEntity
  8
Shape2DView
100
AcDbLine
 10
21.8952
 20
-37.9192
 30
0
 11
22.1023
 21
-38.692
 31
0
  0
LINE
  5
C8A
330
A02
100
AcDbEntity
  8
Shape2DView
100
AcDbLine
 10
22.668
 20
-38.1263
 30
0
 11
21.8952
 21
-37.9192
 31
0
  0
ARC
  5
C8B
330
A02
100
AcDbEntity
  8
Shape2DView
100
AcDbCircle
 10
19.9977
 20
-36.0216
 30
0
 40
3.4
100
AcDbArc
 50
-38.2437
 51
38.2437
  0
LINE
  5
C8C
330
A02
100
AcDbEntity
  8
Shape2DView
100
AcDbLine
 10
21.8952
 20
-34.1241
 30
0
 11
22.668
 21
-33.917
 31
0
  0
LINE
  5
C8D
330
A02
100
AcDbEntity
  8
Shape2DView
100
AcDbLine
 10
22.1023
 20
-33.3513
 30
0
 11
21.8952
 21
-34.1241
 31
0
  0
ARC
  5
C8E
330
A02
100
AcDbEntity
  8
Shape2DView
100
AcDbCircle
 10
19.9977
 20
-36.0216
 30
0
 40
3.4
100
AcDbArc
 50
51.7563
 51
128.244
  0
LINE
  5
C8F
330
A02
100
AcDbEntity
  8
Shape2DView
100
AcDbLine
 10
18.1001
 20
-34.1241
 30
0
 11
17.893
 21
-33.3513
 31
0
  0
LINE
  5
C90
330
A02
100
AcDbEntity
  8
Shape2DView
100
AcDbLine
 10
17.3274
 20
-33.917
 30
0
 11
18.1001
 21
-34.1241
 31
0
  0
ARC
  5
C91
330
A02
100
AcDbEntity
  8
Shape2DView
100
AcDbCircle
 10
19.9977
 20
-36.0216
 30
0
 40
3.4
100
AcDbArc
 50
141.756
 51
-141.756
  0
LINE
  5
C92
330
A02
100
AcDbEntity
  8
Shape2DView
100
AcDbLine
 10
18.1001
 20
-37.9192
 30
0
 11
17.3274
 21
-38.1263
 31
0
  0
LINE
  5
C93
330
A02
100
AcDbEntity
  8
Shape2DView
100
AcDbLine
 10
17.893
 20
-38.692
 30
0
 11
18.1001
 21
-37.9192
 31
0
  0
ARC
  5
C94
330
A02
100
AcDbEntity
  8
Shape2DView
100
AcDbCircle
 10
60.0174
 20
-28.0276
 30
0
 40
3.4
100
AcDbArc
 50
-128.244
 51
-51.7563
  0
LINE
  5
C95
330
A02
100
AcDbEntity
  8
Shape2DView
100
AcDbLine
 10
61.915
 20
-29.9251
 30
0
 11
62.122
 21
-30.6979
 31
0
  0
LINE
  5
C96
330
A02
100
AcDbEntity
  8
Shape2DView
100
AcDbLine
 10
62.6877
 20
-30.1322
 30
0
 11
61.915
 21
-29.9251
 31
0
  0
ARC
  5
C97
330
A02
100
AcDbEntity
  8
Shape2DView
100
AcDbCircle
 10
60.0174
 20
-28.0276
 30
0
 40
3.4
100
AcDbArc
 50
-38.2437
 51
38.2437
  0
LINE
  5
C98
330
A02
100
AcDbEntity
  8
Shape2DView
100
AcDbLine
 10
61.915
 20
-26.13
 30
0
 11
62.6877
 21
-25.9229
 31
0
  0
LINE
  5
C99
330
A02
100
AcDbEntity
  8
Shape2DView
100
AcDbLine
 10
62.122
 20
-25.3572
 30
0
 11
61.915
 21
-26.13
 31
0
  0
ARC
  5
C9A
330
A02
100
AcDbEntity
  8
Shape2DView
100
AcDbCircle
 10
60.0174
 20
-28.0276
 30
0
 40
3.4
100
AcDbArc
 50
51.7563
 51
128.244
  0
LINE
  5
C9B
330
A02
100
AcDbEntity
  8
Shape2DView
100
AcDbLine
 10
58.1198
 20
-26.13
 30
0
 11
57.9128
 21
-25.3572
 31
0
  0
LINE
  5
C9C
330
A02
100
AcDbEntity
  8
Shape2DView
100
AcDbLine
 10
57.3471
 20
-25.9229
 30
0
 11
58.1198
 21
-26.13
 31
0
  0
ARC
  5
C9D
330
A02
100
AcDbEntity
  8
Shape2DView
100
AcDbCircle
 10
60.0174
 20
-28.0276
 30
0
 40
3.4
100
AcDbArc
 50
141.756
 51
-141.756
  0
LINE
  5
C9E
330
A02
100
AcDbEntity
  8
Shape2DView
100
AcDbLine
 10
58.1198
 20
-29.9251
 30
0
 11
57.3471
 21
-30.1322
 31
0
  0
LINE
  5
C9F
330
A02
100
AcDbEntity
  8
Shape2DView
100
AcDbLine
 10
57.9128
 20
-30.6979
 30
0
 11
58.1198
 21
-29.9251
 31
0
  0
ARC
  5
CA0
330
A02
100
AcDbEntity
  8
Shape2DView
100
AcDbCircle
 10
52.0138
 20
-28.0257
 30
0
 40
3.4
100
AcDbArc
 50
-128.244
 51
-51.7563
  0
LINE
  5
CA1
330
A02
100
AcDbEntity
  8
Shape2DView
100
AcDbLine
 10
53.9114
 20
-29.9232
 30
0
 11
54.1185
 21
-30.696
 31
0
  0
LINE
  5
CA2
330
A02
100
AcDbEntity
  8
Shape2DView
100
AcDbLine
 10
54.6842
 20
-30.1303
 30
0
 11
53.9114
 21
-29.9232
 31
0
  0
ARC
  5
CA3
330
A02
100
AcDbEntity
  8
Shape2DView
100
AcDbCircle
 10
52.0138
 20
-28.0257
 30
0
 40
3.4
100
AcDbArc
 50
-38.2437
 51
38.2437
  0
LINE
  5
CA4
330
A02
100
AcDbEntity
  8
Shape2DView
100
AcDbLine
 10
53.9114
 20
-26.1281
 30
0
 11
54.6842
 21
-25.921
 31
0
  0
LINE
  5
CA5
330
A02
100
AcDbEntity
  8
Shape2DView
100
AcDbLine
 10
54.1185
 20
-25.3554
 30
0
 11
53.9114
 21
-26.1281
 31
0
  0
ARC
  5
CA6
330
A02
100
AcDbEntity
  8
Shape2DView
100
AcDbCircle
 10
52.0138
 20
-28.0257
 30
0
 40
3.4
100
AcDbArc
 50
51.7563
 51
128.244
  0
LINE
  5
CA7
330
A02
100
AcDbEntity
  8
Shape2DView
100
AcDbLine
 10
50.1163
 20
-26.1281
 30
0
 11
49.9092
 21
-25.3554
 31
0
  0
LINE
  5
CA8
330
A02
100
AcDbEntity
  8
Shape2DView
100
AcDbLine
 10
49.3435
 20
-25.921
 30
0
 11
50.1163
 21
-26.1281
 31
0
  0
ARC
  5
CA9
330
A02
100
AcDbEntity
  8
Shape2DView
100
AcDbCircle
 10
52.0138
 20
-28.0257
 30
0
 40
3.4
100
AcDbArc
 50
141.756
 51
-141.756
  0
LINE
  5
CAA
330
A02
100
AcDbEntity
  8
Shape2DView
100
AcDbLine
 10
50.1163
 20
-29.9232
 30
0
 11
49.3435
 21
-30.1303
 31
0
  0
LINE
  5
CAB
330
A02
100
AcDbEntity
  8
Shape2DView
100
AcDbLine
 10
49.9092
 20
-30.696
 30
0
 11
50.1163
 21
-29.9232
 31
0
  0
ARC
  5
CAC
330
A02
100
AcDbEntity
  8
Shape2DView
100
AcDbCircle
 10
44.0103
 20
-28.0238
 30
0
 40
3.4
100
AcDbArc
 50
-128.244
 51
-51.7563
  0
LINE
  5
CAD
330
A02
100
AcDbEntity
  8
Shape2DView
100
AcDbLine
 10
45.9078
 20
-29.9213
 30
0
 11
46.1149
 21
-30.6941
 31
0
  0
LINE
  5
CAE
330
A02
100
AcDbEntity
  8
Shape2DView
100
AcDbLine
 10
46.6806
 20
-30.1284
 30
0
 11
45.9078
 21
-29.9213
 31
0
  0
ARC
  5
CAF
330
A02
100
AcDbEntity
  8
Shape2DView
100
AcDbCircle
 10
44.0103
 20
-28.0238
 30
0
 40
3.4
100
AcDbArc
 50
-38.2437
 51
38.2437
  0
LINE
  5
CB0
330
A02
100
AcDbEntity
  8
Shape2DView
100
AcDbLine
 10
45.9078
 20
-26.1262
 30
0
 11
46.6806
 21
-25.9191
 31
0
  0
LINE
  5
CB1
330
A02
100
AcDbEntity
  8
Shape2DView
100
AcDbLine
 10
46.1149
 20
-25.3535
 30
0
 11
45.9078
 21
-26.1262
 31
0
  0
ARC
  5
CB2
330
A02
100
AcDbEntity
  8
Shape2DView
100
AcDbCircle
 10
44.0103
 20
-28.0238
 30
0
 40
3.4
100
AcDbArc
 50
51.7563
 51
128.244
  0
LINE
  5
CB3
330
A02
100
AcDbEntity
  8
Shape2DView
100
AcDbLine
 10
42.1127
 20
-26.1262
 30
0
 11
41.9056
 21
-25.3535
 31
0
  0
LINE
  5
CB4
330
A02
100
AcDbEntity
  8
Shape2DView
100
AcDbLine
 10
41.34
 20
-25.9191
 30
0
 11
42.1127
 21
-26.1262
 31
0
  0
ARC
  5
CB5
330
A02
100
AcDbEntity
  8
Shape2DView
100
AcDbCircle
 10
44.0103
 20
-28.0238
 30
0
 40
3.4
100
AcDbArc
 50
141.756
 51
-141.756
  0
LINE
  5
CB6
330
A02
100
AcDbEntity
  8
Shape2DView
100
AcDbLine
 10
42.1127
 20
-29.9213
 30
0
 11
41.34
 21
-30.1284
 31
0
  0
LINE
  5
CB7
330
A02
100
AcDbEntity
  8
Shape2DView
100
AcDbLine
 10
41.9056
 20
-30.6941
 30
0
 11
42.1127
 21
-29.9213
 31
0
  0
ARC
  5
CB8
330
A02
100
AcDbEntity
  8
Shape2DView
100
AcDbCircle
 10
36.0067
 20
-28.0219
 30
0
 40
3.4
100
AcDbArc
 50
-128.244
 51
-51.7563
  0
LINE
  5
CB9
330
A02
100
AcDbEntity
  8
Shape2DView
100
AcDbLine
 10
37.9043
 20
-29.9194
 30
0
 11
38.1113
 21
-30.6922
 31
0
  0
LINE
  5
CBA
330
A02
100
AcDbEntity
  8
Shape2DView
100
AcDbLine
 10
38.677
 20
-30.1265
 30
0
 11
37.9043
 21
-29.9194
 31
0
  0
ARC
  5
CBB
330
A02
100
AcDbEntity
  8
Shape2DView
100
AcDbCircle
 10
36.0067
 20
-28.0219
 30
0
 40
3.4
100
AcDbArc
 50
-38.2437
 51
38.2437
  0
LINE
  5
CBC
330
A02
100
AcDbEntity
  8
Shape2DView
100
AcDbLine
 10
37.9043
 20
-26.1243
 30
0
 11
38.677
 21
-25.9172
 31
0
  0
LINE
  5
CBD
330
A02
100
AcDbEntity
  8
Shape2DView
100
AcDbLine
 10
38.1113
 20
-25.3516
 30
0
 11
37.9043
 21
-26.1243
 31
0
  0
ARC
  5
CBE
330
A02
100
AcDbEntity
  8
Shape2DView
100
AcDbCircle
 10
36.0067
 20
-28.0219
 30
0
 40
3.4
100
AcDbArc
 50
51.7563
 51
128.244
  0
LINE
  5
CBF
330
A02
100
AcDbEntity
  8
Shape2DView
100
AcDbLine
 10
34.1091
 20
-26.1243
 30
0
 11
33.9021
 21
-25.3516
 31
0
  0
LINE
  5
CC0
330
A02
100
AcDbEntity
  8
Shape2DView
100
AcDbLine
 10
33.3364
 20
-25.9172
 30
0
 11
34.1091
 21
-26.1243
 31
0
  0
ARC
  5
CC1
330
A02
100
AcDbEntity
  8
Shape2DView
100
AcDbCircle
 10
36.0067
 20
-28.0219
 30
0
 40
3.4
100
AcDbArc
 50
141.756
 51
-141.756
  0
LINE
  5
CC2
330
A02
100
AcDbEntity
  8
Shape2DView
100
AcDbLine
 10
34.1091
 20
-29.9194
 30
0
 11
33.3364
 21
-30.1265
 31
0
  0
LINE
  5
CC3
330
A02
100
AcDbEntity
  8
Shape2DView
100
AcDbLine
 10
33.9021
 20
-30.6922
 30
0
 11
34.1091
 21
-29.9194
 31
0
  0
ARC
  5
CC4
330
A02
100
AcDbEntity
  8
Shape2DView
100
AcDbCircle
 10
28.0031
 20
-28.02
 30
0
 40
3.4
100
AcDbArc
 50
-128.244
 51
-51.7563
  0
LINE
  5
CC5
330
A02
100
AcDbEntity
  8
Shape2DView
100
AcDbLine
 10
29.9007
 20
-29.9175
 30
0
 11
30.1078
 21
-30.6903
 31
0
  0
LINE
  5
CC6
330
A02
100
AcDbEntity
  8
Shape2DView
100
AcDbLine
 10
30.6734
 20
-30.1246
 30
0
 11
29.9007
 21
-29.9175
 31
0
  0
ARC
  5
CC7
330
A02
100
AcDbEntity
  8
Shape2DView
100
AcDbCircle
 10
28.0031
 20
-28.02
 30
0
 40
3.4
100
AcDbArc
 50
-38.2437
 51
38.2437
  0
LINE
  5
CC8
330
A02
100
AcDbEntity
  8
Shape2DView
100
AcDbLine
 10
29.9007
 20
-26.1224
 30
0
 11
30.6734
 21
-25.9153
 31
0
  0
LINE
  5
CC9
330
A02
100
AcDbEntity
  8
Shape2DView
100
AcDbLine
 10
30.1078
 20
-25.3497
 30
0
 11
29.9007
 21
-26.1224
 31
0
  0
ARC
  5
CCA
330
A02
100
AcDbEntity
  8
Shape2DView
100
AcDbCircle
 10
28.0031
 20
-28.02
 30
0
 40
3.4
100
AcDbArc
 50
51.7563
 51
128.244
  0
LINE
  5
CCB
330
A02
100
AcDbEntity
  8
Shape2DView
100
AcDbLine
 10
26.1056
 20
-26.1224
 30
0
 11
25.8985
 21
-25.3497
 31
0
  0
LINE
  5
CCC
330
A02
100
AcDbEntity
  8
Shape2DView
100
AcDbLine
 10
25.3328
 20
-25.9153
 30
0
 11
26.1056
 21
-26.1224
 31
0
  0
ARC
  5
CCD
330
A02
100
AcDbEntity
  8
Shape2DView
100
AcDbCircle
 10
28.0031
 20
-28.02
 30
0
 40
3.4
100
AcDbArc
 50
141.756
 51
-141.756
  0
LINE
  5
CCE
330
A02
100
AcDbEntity
  8
Shape2DView
100
AcDbLine
 10
26.1056
 20
-29.9175
 30
0
 11
25.3328
 21
-30.1246
 31
0
  0
LINE
  5
CCF
330
A02
100
AcDbEntity
  8
Shape2DView
100
AcDbLine
 10
25.8985
 20
-30.6903
 30
0
 11
26.1056
 21
-29.9175
 31
0
  0
ARC
  5
CD0
330
A02
100
AcDbEntity
  8
Shape2DView
100
AcDbCircle
 10
19.9996
 20
-28.0181
 30
0
 40
3.4
100
AcDbArc
 50
-128.244
 51
-51.7563
  0
LINE
  5
CD1
330
A02
100
AcDbEntity
  8
Shape2DView
100
AcDbLine
 10
21.8971
 20
-29.9156
 30
0
 11
22.1042
 21
-30.6884
 31
0
  0
LINE
  5
CD2
330
A02
100
AcDbEntity
  8
Shape2DView
100
AcDbLine
 10
22.6699
 20
-30.1227
 30
0
 11
21.8971
 21
-29.9156
 31
0
  0
ARC
  5
CD3
330
A02
100
AcDbEntity
  8
Shape2DView
100
AcDbCircle
 10
19.9996
 20
-28.0181
 30
0
 40
3.4
100
AcDbArc
 50
-38.2437
 51
38.2437
  0
LINE
  5
CD4
330
A02
100
AcDbEntity
  8
Shape2DView
100
AcDbLine
 10
21.8971
 20
-26.1205
 30
0
 11
22.6699
 21
-25.9135
 31
0
  0
LINE
  5
CD5
330
A02
100
AcDbEntity
  8
Shape2DView
100
AcDbLine
 10
22.1042
 20
-25.3478
 30
0
 11
21.8971
 21
-26.1205
 31
0
  0
ARC
  5
CD6
330
A02
100
AcDbEntity
  8
Shape2DView
100
AcDbCircle
 10
19.9996
 20
-28.0181
 30
0
 40
3.4
100
AcDbArc
 50
51.7563
 51
128.244
  0
LINE
  5
CD7
330
A02
100
AcDbEntity
  8
Shape2DView
100
AcDbLine
 10
18.102
 20
-26.1205
 30
0
 11
17.8949
 21
-25.3478
 31
0
  0
LINE
  5
CD8
330
A02
100
AcDbEntity
  8
Shape2DView
100
AcDbLine
 10
17.3292
 20
-25.9135
 30
0
 11
18.102
 21
-26.1205
 31
0
  0
ARC
  5
CD9
330
A02
100
AcDbEntity
  8
Shape2DView
100
AcDbCircle
 10
19.9996
 20
-28.0181
 30
0
 40
3.4
100
AcDbArc
 50
141.756
 51
-141.756
  0
LINE
  5
CDA
330
A02
100
AcDbEntity
  8
Shape2DView
100
AcDbLine
 10
18.102
 20
-29.9156
 30
0
 11
17.3292
 21
-30.1227
 31
0
  0
LINE
  5
CDB
330
A02
100
AcDbEntity
  8
Shape2DView
100
AcDbLine
 10
17.8949
 20
-30.6884
 30
0
 11
18.102
 21
-29.9156
 31
0
  0
ARC
  5
CDC
330
A02
100
AcDbEntity
  8
Shape2DView
100
AcDbCircle
 10
52.0157
 20
-20.0221
 30
0
 40
3.4
100
AcDbArc
 50
-128.244
 51
-51.7563
  0
LINE
  5
CDD
330
A02
100
AcDbEntity
  8
Shape2DView
100
AcDbLine
 10
53.9133
 20
-21.9197
 30
0
 11
54.1204
 21
-22.6924
 31
0
  0
LINE
  5
CDE
330
A02
100
AcDbEntity
  8
Shape2DView
100
AcDbLine
 10
54.686
 20
-22.1267
 30
0
 11
53.9133
 21
-21.9197
 31
0
  0
ARC
  5
CDF
330
A02
100
AcDbEntity
  8
Shape2DView
100
AcDbCircle
 10
52.0157
 20
-20.0221
 30
0
 40
3.4
100
AcDbArc
 50
-38.2437
 51
38.2437
  0
LINE
  5
CE0
330
A02
100
AcDbEntity
  8
Shape2DView
100
AcDbLine
 10
53.9133
 20
-18.1245
 30
0
 11
54.686
 21
-17.9175
 31
0
  0
LINE
  5
CE1
330
A02
100
AcDbEntity
  8
Shape2DView
100
AcDbLine
 10
54.1204
 20
-17.3518
 30
0
 11
53.9133
 21
-18.1245
 31
0
  0
ARC
  5
CE2
330
A02
100
AcDbEntity
  8
Shape2DView
100
AcDbCircle
 10
52.0157
 20
-20.0221
 30
0
 40
3.4
100
AcDbArc
 50
51.7563
 51
128.244
  0
LINE
  5
CE3
330
A02
100
AcDbEntity
  8
Shape2DView
100
AcDbLine
 10
50.1182
 20
-18.1245
 30
0
 11
49.9111
 21
-17.3518
 31
0
  0
LINE
  5
CE4
330
A02
100
AcDbEntity
  8
Shape2DView
100
AcDbLine
 10
49.3454
 20
-17.9175
 30
0
 11
50.1182
 21
-18.1245
 31
0
  0
ARC
  5
CE5
330
A02
100
AcDbEntity
  8
Shape2DView
100
AcDbCircle
 10
52.0157
 20
-20.0221
 30
0
 40
3.4
100
AcDbArc
 50
141.756
 51
-141.756
  0
LINE
  5
CE6
330
A02
100
AcDbEntity
  8
Shape2DView
100
AcDbLine
 10
50.1182
 20
-21.9197
 30
0
 11
49.3454
 21
-22.1267
 31
0
  0
LINE
  5
CE7
330
A02
100
AcDbEntity
  8
Shape2DView
100
AcDbLine
 10
49.9111
 20
-22.6924
 30
0
 11
50.1182
 21
-21.9197
 31
0
  0
ARC
  5
CE8
330
A02
100
AcDbEntity
  8
Shape2DView
100
AcDbCircle
 10
44.0122
 20
-20.0202
 30
0
 40
3.4
100
AcDbArc
 50
-128.244
 51
-51.7563
  0
LINE
  5
CE9
330
A02
100
AcDbEntity
  8
Shape2DView
100
AcDbLine
 10
45.9097
 20
-21.9178
 30
0
 11
46.1168
 21
-22.6905
 31
0
  0
LINE
  5
CEA
330
A02
100
AcDbEntity
  8
Shape2DView
100
AcDbLine
 10
46.6825
 20
-22.1248
 30
0
 11
45.9097
 21
-21.9178
 31
0
  0
ARC
  5
CEB
330
A02
100
AcDbEntity
  8
Shape2DView
100
AcDbCircle
 10
44.0122
 20
-20.0202
 30
0
 40
3.4
100
AcDbArc
 50
-38.2437
 51
38.2437
  0
LINE
  5
CEC
330
A02
100
AcDbEntity
  8
Shape2DView
100
AcDbLine
 10
45.9097
 20
-18.1226
 30
0
 11
46.6825
 21
-17.9156
 31
0
  0
LINE
  5
CED
330
A02
100
AcDbEntity
  8
Shape2DView
100
AcDbLine
 10
46.1168
 20
-17.3499
 30
0
 11
45.9097
 21
-18.1226
 31
0
  0
ARC
  5
CEE
330
A02
100
AcDbEntity
  8
Shape2DView
100
AcDbCircle
 10
44.0122
 20
-20.0202
 30
0
 40
3.4
100
AcDbArc
 50
51.7563
 51
128.244
  0
LINE
  5
CEF
330
A02
100
AcDbEntity
  8
Shape2DView
100
AcDbLine
 10
42.1146
 20
-18.1226
 30
0
 11
41.9075
 21
-17.3499
 31
0
  0
LINE
  5
CF0
330
A02
100
AcDbEntity
  8
Shape2DView
100
AcDbLine
 10
41.3419
 20
-17.9156
 30
0
 11
42.1146
 21
-18.1226
 31
0
  0
ARC
  5
CF1
330
A02
100
AcDbEntity
  8
Shape2DView
100
AcDbCircle
 10
44.0122
 20
-20.0202
 30
0
 40
3.4
100
AcDbArc
 50
141.756
 51
-141.756
  0
LINE
  5
CF2
330
A02
100
AcDbEntity
  8
Shape2DView
100
AcDbLine
 10
42.1146
 20
-21.9178
 30
0
 11
41.3419
 21
-22.1248
 31
0
  0
LINE
  5
CF3
330
A02
100
AcDbEntity
  8
Shape2DView
100
AcDbLine
 10
41.9075
 20
-22.6905
 30
0
 11
42.1146
 21
-21.9178
 31
0
  0
ARC
  5
CF4
330
A02
100
AcDbEntity
  8
Shape2DView
100
AcDbCircle
 10
36.0086
 20
-20.0183
 30
0
 40
3.4
100
AcDbArc
 50
-128.244
 51
-51.7563
  0
LINE
  5
CF5
330
A02
100
AcDbEntity
  8
Shape2DView
100
AcDbLine
 10
37.9062
 20
-21.9159
 30
0
 11
38.1132
 21
-22.6886
 31
0
  0
LINE
  5
CF6
330
A02
100
AcDbEntity
  8
Shape2DView
100
AcDbLine
 10
38.6789
 20
-22.1229
 30
0
 11
37.9062
 21
-21.9159
 31
0
  0
ARC
  5
CF7
330
A02
100
AcDbEntity
  8
Shape2DView
100
AcDbCircle
 10
36.0086
 20
-20.0183
 30
0
 40
3.4
100
AcDbArc
 50
-38.2437
 51
38.2437
  0
LINE
  5
CF8
330
A02
100
AcDbEntity
  8
Shape2DView
100
AcDbLine
 10
37.9062
 20
-18.1207
 30
0
 11
38.6789
 21
-17.9137
 31
0
  0
LINE
  5
CF9
330
A02
100
AcDbEntity
  8
Shape2DView
100
AcDbLine
 10
38.1132
 20
-17.348
 30
0
 11
37.9062
 21
-18.1207
 31
0
  0
ARC
  5
CFA
330
A02
100
AcDbEntity
  8
Shape2DView
100
AcDbCircle
 10
36.0086
 20
-20.0183
 30
0
 40
3.4
100
AcDbArc
 50
51.7563
 51
128.244
  0
LINE
  5
CFB
330
A02
100
AcDbEntity
  8
Shape2DView
100
AcDbLine
 10
34.111
 20
-18.1207
 30
0
 11
33.904
 21
-17.348
 31
0
  0
LINE
  5
CFC
330
A02
100
AcDbEntity
  8
Shape2DView
100
AcDbLine
 10
33.3383
 20
-17.9137
 30
0
 11
34.111
 21
-18.1207
 31
0
  0
ARC
  5
CFD
330
A02
100
AcDbEntity
  8
Shape2DView
100
AcDbCircle
 10
36.0086
 20
-20.0183
 30
0
 40
3.4
100
AcDbArc
 50
141.756
 51
-141.756
  0
LINE
  5
CFE
330
A02
100
AcDbEntity
  8
Shape2DView
100
AcDbLine
 10
34.111
 20
-21.9159
 30
0
 11
33.3383
 21
-22.1229
 31
0
  0
LINE
  5
CFF
330
A02
100
AcDbEntity
  8
Shape2DView
100
AcDbLine
 10
33.904
 20
-22.6886
 30
0
 11
34.111
 21
-21.9159
 31
0
  0
ARC
  5
D00
330
A02
100
AcDbEntity
  8
Shape2DView
100
AcDbCircle
 10
52.0119
 20
-36.0292
 30
0
 40
3.4
100
AcDbArc
 50
-128.244
 51
-51.7563
  0
LINE
  5
D01
330
A02
100
AcDbEntity
  8
Shape2DView
100
AcDbLine
 10
53.9095
 20
-37.9268
 30
0
 11
54.1166
 21
-38.6995
 31
0
  0
LINE
  5
D02
330
A02
100
AcDbEntity
  8
Shape2DView
100
AcDbLine
 10
54.6823
 20
-38.1339
 30
0
 11
53.9095
 21
-37.9268
 31
0
  0
ARC
  5
D03
330
A02
100
AcDbEntity
  8
Shape2DView
100
AcDbCircle
 10
52.0119
 20
-36.0292
 30
0
 40
3.4
100
AcDbArc
 50
-38.2437
 51
38.2437
  0
LINE
  5
D04
330
A02
100
AcDbEntity
  8
Shape2DView
100
AcDbLine
 10
53.9095
 20
-34.1317
 30
0
 11
54.6823
 21
-33.9246
 31
0
  0
LINE
  5
D05
330
A02
100
AcDbEntity
  8
Shape2DView
100
AcDbLine
 10
54.1166
 20
-33.3589
 30
0
 11
53.9095
 21
-34.1317
 31
0
  0
ARC
  5
D06
330
A02
100
AcDbEntity
  8
Shape2DView
100
AcDbCircle
 10
52.0119
 20
-36.0292
 30
0
 40
3.4
100
AcDbArc
 50
51.7563
 51
128.244
  0
LINE
  5
D07
330
A02
100
AcDbEntity
  8
Shape2DView
100
AcDbLine
 10
50.1144
 20
-34.1317
 30
0
 11
49.9073
 21
-33.3589
 31
0
  0
LINE
  5
D08
330
A02
100
AcDbEntity
  8
Shape2DView
100
AcDbLine
 10
49.3416
 20
-33.9246
 30
0
 11
50.1144
 21
-34.1317
 31
0
  0
ARC
  5
D09
330
A02
100
AcDbEntity
  8
Shape2DView
100
AcDbCircle
 10
52.0119
 20
-36.0292
 30
0
 40
3.4
100
AcDbArc
 50
141.756
 51
-141.756
  0
LINE
  5
D0A
330
A02
100
AcDbEntity
  8
Shape2DView
100
AcDbLine
 10
50.1144
 20
-37.9268
 30
0
 11
49.3416
 21
-38.1339
 31
0
  0
LINE
  5
D0B
330
A02
100
AcDbEntity
  8
Shape2DView
100
AcDbLine
 10
49.9073
 20
-38.6995
 30
0
 11
50.1144
 21
-37.9268
 31
0
  0
ENDSEC
  0
SECTION
  2
OBJECTS
  0
DICTIONARY
  5
F000
330
0
100
AcDbDictionary
  3
ACAD_GROUP
350
F001
  0
DICTIONARY
  5
F001
330
F000
100
AcDbDictionary
  0
ENDSEC
  0
EOF